<svg width="50" height="50" viewBox="0 0 50 50" fill="none" xmlns="http://www.w3.org/2000/svg">
<path d="M49.7218 24.1766C49.5417 23.579 49.2207 23.0334 48.7859 22.5856C48.4541 22.2276 48.0281 21.9703 47.5568 21.8432C47.7877 22.2082 47.9967 22.6293 48.1527 23.0785C48.3274 23.5371 48.4397 24.0269 48.474 24.5354C48.5266 24.9747 48.5266 25.4187 48.474 25.8581C48.3767 25.5324 48.2271 25.2248 48.031 24.9471C47.6447 24.425 47.1284 24.0131 46.5336 23.7523C45.8747 23.4556 45.1294 23.4132 44.4411 23.6332C43.7528 23.8533 43.1703 24.3202 42.8057 24.944C42.6497 25.1998 42.5249 25.4775 42.4314 25.7738C38.744 19.6345 32.1087 15.5697 24.5218 15.5697C24.135 15.5697 23.7513 15.579 23.3707 15.6009C21.017 15.6053 18.675 15.9338 16.4109 16.5773C16.2175 15.2234 14.4394 12.4782 6.26605 12.4782L8.76171 20.3083C7.19239 21.5769 5.87317 23.1267 4.8716 24.8785L0.0268874 24.9565C0.0268874 24.9565 -0.503441 37.4348 3.14647 37.4348H4.83104C5.97787 39.3788 7.51225 41.0661 9.33884 42.3918L9.38563 49.9132H12.7548C16.8414 49.9132 18.7444 49.9132 18.7444 47.5735V46.3568C21.891 46.9399 25.1187 46.9314 28.2622 46.3319L28.1031 47.5735C28.1031 49.9132 30.0373 49.9132 34.1551 49.9132H37.4619V42.4574C40.3871 40.4293 42.4922 37.4236 43.3984 33.9815C43.5762 33.8972 43.7541 33.9066 43.935 33.9066C44.1159 33.9066 44.2937 33.8972 44.4716 33.8754C45.2546 33.7319 45.969 33.4262 46.5898 32.9925C47.4288 32.399 48.0709 31.5678 48.4334 30.6061C48.5208 30.316 48.5863 30.0102 48.63 29.6952L48.6331 29.664C49.3225 28.8466 49.7936 27.8234 49.9402 26.6972C50.0677 25.8367 49.9907 24.9582 49.7156 24.1329L49.7218 24.1766ZM10.9766 24.1766C11.5971 24.1766 12.1922 24.4231 12.631 24.8619C13.0698 25.3007 13.3163 25.8958 13.3163 26.5163C13.3163 27.1368 13.0698 27.7319 12.631 28.1707C12.1922 28.6095 11.5971 28.856 10.9766 28.856C10.3561 28.856 9.76098 28.6095 9.32221 28.1707C8.88343 27.7319 8.63693 27.1368 8.63693 26.5163C8.63693 25.8958 8.88343 25.3007 9.32221 24.8619C9.76098 24.4231 10.3561 24.1766 10.9766 24.1766ZM18.37 21.8369C18.0177 21.9499 17.6368 21.9345 17.2948 21.7935C16.9527 21.6525 16.6717 21.3949 16.5014 21.0664C16.4483 20.9027 16.4306 20.7296 16.4493 20.5586C16.4681 20.3875 16.5229 20.2224 16.6102 20.0741C16.6974 19.9258 16.8152 19.7977 16.9556 19.6983C17.096 19.5989 17.2559 19.5303 17.4248 19.4972C19.4766 19.0052 21.5824 18.7746 23.692 18.8109L24.0071 18.8078C26.1035 18.8078 28.1374 19.0574 30.0872 19.5316C30.4802 19.6064 30.9045 20.0993 30.9045 20.692C30.9044 20.8181 30.8843 20.9434 30.8452 21.0633C30.736 21.2655 30.582 21.4401 30.3949 21.5737C30.2078 21.7072 29.9926 21.7962 29.7659 21.8338H29.2886C27.5458 21.4142 25.7591 21.2047 23.9666 21.2099H23.6889C21.8016 21.2099 19.9672 21.4376 18.2109 21.8681L18.37 21.8369ZM45.5104 30.9773C45.0895 31.2835 44.6074 31.4952 44.0972 31.5981L43.701 31.6012V30.2286C44.2158 30.6185 44.8677 30.8525 45.5728 30.8525H45.6383L45.5104 30.9773ZM45.7599 28.856C45.47 28.8966 45.1746 28.8435 44.917 28.7043C44.6594 28.5651 44.453 28.3472 44.3281 28.0823C44.1851 27.8099 44.1107 27.5068 44.1112 27.1991C44.1118 26.8914 44.1873 26.5886 44.3312 26.3166C44.4795 26.1113 44.6979 25.9675 44.9451 25.9123C45.1922 25.8571 45.4511 25.8944 45.6726 26.0172C45.9553 26.1257 46.1984 26.3173 46.3699 26.5668C46.5415 26.8163 46.6333 27.112 46.6334 27.4147C46.6951 27.8473 46.694 28.2896 46.6303 28.7218C46.3406 28.7777 46.0455 28.8007 45.7506 28.7905L45.7599 28.856ZM24.9835 9.3586H21.864V8.82827H22.6438V5.42793H21.864L23.5797 3.71216H24.2036V8.82827H24.9835V9.3586Z" fill="white"/>
<path d="M23.4238 2.33969C24.0385 2.33989 24.6472 2.46117 25.215 2.6966C25.7829 2.93203 26.2988 3.27699 26.7333 3.7118C27.1678 4.14661 27.5124 4.66275 27.7475 5.23074C27.9825 5.79874 28.1034 6.40747 28.1032 7.02218C28.103 7.63689 27.9817 8.24554 27.7463 8.81338C27.5109 9.38121 27.1659 9.89712 26.7311 10.3316C26.2963 10.7662 25.7801 11.1108 25.2122 11.3458C24.6442 11.5809 24.0354 11.7018 23.4207 11.7016C22.1793 11.7011 20.9888 11.2076 20.1113 10.3294C19.2337 9.4513 18.7409 8.26052 18.7414 7.01906C18.7418 5.7776 19.2353 4.58715 20.1135 3.7096C20.9916 2.83204 22.1824 2.33927 23.4238 2.33969ZM23.4238 0C21.5623 0 19.7769 0.739506 18.4606 2.05584C17.1443 3.37216 16.4048 5.15749 16.4048 7.01906C16.4048 8.88063 17.1443 10.666 18.4606 11.9823C19.7769 13.2986 21.5623 14.0381 23.4238 14.0381C25.2854 14.0381 27.0707 13.2986 28.3871 11.9823C29.7034 10.666 30.4429 8.88063 30.4429 7.01906C30.4429 5.15749 29.7034 3.37216 28.3871 2.05584C27.0707 0.739506 25.2854 0 23.4238 0Z" fill="white"/>
</svg>
