<svg width="50" height="56" viewBox="0 0 50 56" fill="none" xmlns="http://www.w3.org/2000/svg">
<path d="M9.37501 55.8824C7.65626 55.8824 6.18438 55.2739 4.95938 54.0569C3.73438 52.8399 3.12293 51.3787 3.12501 49.6732V9.31373C2.23959 9.31373 1.49689 9.01569 0.896886 8.41962C0.296886 7.82354 -0.00207252 7.08672 1.08131e-05 6.20916C1.08131e-05 5.32953 0.300011 4.59168 0.900011 3.9956C1.50001 3.39952 2.24168 3.10252 3.12501 3.10459H15.625C15.625 2.22496 15.925 1.4871 16.525 0.891023C17.125 0.294945 17.8667 -0.00205897 18.75 1.07425e-05H31.25C32.1354 1.07425e-05 32.8781 0.29805 33.4781 0.894129C34.0781 1.49021 34.3771 2.22703 34.375 3.10459H46.875C47.7604 3.10459 48.5031 3.40262 49.1031 3.9987C49.7031 4.59478 50.0021 5.3316 50 6.20916C50 7.08879 49.7 7.82664 49.1 8.42272C48.5 9.0188 47.7583 9.3158 46.875 9.31373V49.6732C46.875 51.3807 46.2625 52.843 45.0375 54.06C43.8125 55.277 42.3417 55.8844 40.625 55.8824H9.37501ZM40.625 9.31373H9.37501V49.6732H40.625V9.31373ZM18.75 43.4641C19.6354 43.4641 20.3781 43.166 20.9781 42.5699C21.5781 41.9739 21.8771 41.237 21.875 40.3595V18.6275C21.875 17.7478 21.575 17.01 20.975 16.4139C20.375 15.8178 19.6333 15.5208 18.75 15.5229C17.8646 15.5229 17.1219 15.8209 16.5219 16.417C15.9219 17.0131 15.6229 17.7499 15.625 18.6275V40.3595C15.625 41.2391 15.925 41.977 16.525 42.573C17.125 43.1691 17.8667 43.4661 18.75 43.4641ZM31.25 43.4641C32.1354 43.4641 32.8781 43.166 33.4781 42.5699C34.0781 41.9739 34.3771 41.237 34.375 40.3595V18.6275C34.375 17.7478 34.075 17.01 33.475 16.4139C32.875 15.8178 32.1333 15.5208 31.25 15.5229C30.3646 15.5229 29.6219 15.8209 29.0219 16.417C28.4219 17.0131 28.1229 17.7499 28.125 18.6275V40.3595C28.125 41.2391 28.425 41.977 29.025 42.573C29.625 43.1691 30.3667 43.4661 31.25 43.4641Z" fill="white"/>
</svg>
