<svg width="56" height="56" viewBox="0 0 56 56" fill="none" xmlns="http://www.w3.org/2000/svg">
<path d="M19.6667 53H36.3333M19.6667 53V39.1111M19.6667 53H4.66667C4.22464 53 3.80072 52.8244 3.48816 52.5118C3.17559 52.1993 3 51.7754 3 51.3333V40.7778C3 40.3358 3.17559 39.9118 3.48816 39.5993C3.80072 39.2867 4.22464 39.1111 4.66667 39.1111H19.6667M36.3333 53V19.6667M36.3333 53H51.3333C51.7754 53 52.1993 52.8244 52.5118 52.5118C52.8244 52.1993 53 51.7754 53 51.3333V4.66667C53 4.22464 52.8244 3.80072 52.5118 3.48816C52.1993 3.17559 51.7754 3 51.3333 3H38C37.558 3 37.134 3.17559 36.8215 3.48816C36.5089 3.80072 36.3333 4.22464 36.3333 4.66667V19.6667M19.6667 39.1111V21.3333C19.6667 20.8913 19.8423 20.4674 20.1548 20.1548C20.4674 19.8423 20.8913 19.6667 21.3333 19.6667H36.3333" stroke="white" stroke-width="5.5"/>
</svg>
