<svg width="50" height="37" viewBox="0 0 50 37" fill="none" xmlns="http://www.w3.org/2000/svg">
<path d="M29.5455 20.4044C27.6515 20.4044 26.0417 19.7432 24.7159 18.4207C23.3902 17.0981 22.7273 15.4922 22.7273 13.6029C22.7273 11.7136 23.3902 10.1077 24.7159 8.78524C26.0417 7.46273 27.6515 6.80147 29.5455 6.80147C31.4394 6.80147 33.0492 7.46273 34.375 8.78524C35.7008 10.1077 36.3636 11.7136 36.3636 13.6029C36.3636 15.4922 35.7008 17.0981 34.375 18.4207C33.0492 19.7432 31.4394 20.4044 29.5455 20.4044ZM13.6364 27.2059C12.3864 27.2059 11.3159 26.7615 10.425 25.8728C9.53409 24.9841 9.0894 23.917 9.09091 22.6716V4.53432C9.09091 3.28738 9.53637 2.21955 10.4273 1.33082C11.3182 0.442099 12.3879 -0.00150759 13.6364 3.84917e-06H45.4545C46.7045 3.84917e-06 47.775 0.444366 48.6659 1.33309C49.5568 2.22182 50.0015 3.28889 50 4.53432V22.6716C50 23.9185 49.5545 24.9863 48.6636 25.8751C47.7727 26.7638 46.703 27.2074 45.4545 27.2059H13.6364ZM18.1818 22.6716H40.9091C40.9091 21.4246 41.3545 20.3568 42.2455 19.4681C43.1364 18.5794 44.2061 18.1357 45.4545 18.1373V9.06863C44.2045 9.06863 43.1341 8.62427 42.2432 7.73554C41.3523 6.84682 40.9076 5.77974 40.9091 4.53432H18.1818C18.1818 5.78125 17.7364 6.84908 16.8455 7.73781C15.9545 8.62654 14.8849 9.07014 13.6364 9.06863V18.1373C14.8864 18.1373 15.9568 18.5816 16.8477 19.4703C17.7386 20.3591 18.1833 21.4261 18.1818 22.6716ZM43.1818 36.2745H4.54546C3.29546 36.2745 2.225 35.8302 1.33409 34.9414C0.443186 34.0527 -0.00151129 32.9856 3.85862e-06 31.7402V6.80147H4.54546V31.7402H43.1818V36.2745Z" fill="white"/>
</svg>
