<?xml version="1.0" encoding="UTF-8"?>
<svg id="OBJECTS" xmlns="http://www.w3.org/2000/svg" viewBox="0 0 249.48 232.05">
  <defs>
    <style>
      .cls-1 {
        fill: #4c224b;
      }

      .cls-1, .cls-2, .cls-3, .cls-4, .cls-5, .cls-6 {
        stroke-width: 0px;
      }

      .cls-2 {
        fill: #fce8e3;
      }

      .cls-3 {
        fill: #fff;
      }

      .cls-4 {
        fill: #e2988f;
      }

      .cls-5 {
        fill: #c46966;
      }

      .cls-6 {
        fill: #f4ba5d;
      }
    </style>
  </defs>
  <circle class="cls-2" cx="117.87" cy="130.45" r="55.82"/>
  <g>
    <rect class="cls-4" x="103.1" y="123.1" width="29.53" height="33.36"/>
    <g>
      <path class="cls-4" d="m146.79,99.69c-1.63-3.9-4.96-1.98-4.96-1.98,1.92-17.71-7.08-29.4-23.97-29.4s-25.89,11.69-23.97,29.4c0,0-3.33-1.91-4.96,1.98s1.35,13.03,3.19,15.94c1.84,2.9,5.1,5.1,5.1,5.1,0,0,.21,3.26,1.06,5.52.85,2.27,10.48,12.69,13.31,14.28,3.71,2.19,9.19,2.19,12.52,0,2.83-1.59,12.47-12.01,13.31-14.28.85-2.27,1.06-5.52,1.06-5.52,0,0,3.26-2.2,5.1-5.1,1.84-2.9,4.82-12.04,3.19-15.94Z"/>
      <g>
        <path class="cls-5" d="m118.01,142.53c-2.32,0-4.69-.56-6.6-1.68-1.71-.96-5.66-4.91-8.59-8.17l.56-.5c2.99,3.32,6.84,7.14,8.41,8.02,3.59,2.11,8.92,2.12,12.13.01,1.6-.9,5.45-4.72,8.43-8.03l.56.5c-2.94,3.26-6.88,7.2-8.6,8.17-1.7,1.12-3.97,1.68-6.3,1.68Z"/>
        <rect class="cls-5" x="96.39" y="113.1" width=".75" height="7.65" transform="translate(-13.58 12.72) rotate(-7.03)"/>
        <rect class="cls-5" x="135.14" y="116.55" width="7.64" height=".75" transform="translate(7.39 242.1) rotate(-83.65)"/>
        <g>
          <path class="cls-5" d="m91.12,108.44c-.16-.57-1.48-5.65.35-7.04.61-.39,1.1-.35,1.41-.25.93.3,1.4,1.46,1.45,1.59l-.7.27c-.1-.26-.48-.98-.98-1.14-.23-.08-.48-.02-.75.15-1.05.8-.6,4.25-.06,6.23l-.72.2Z"/>
          <path class="cls-5" d="m144.61,108.44l-.72-.2c.54-1.98,1-5.43-.08-6.24-.25-.16-.5-.21-.73-.14-.6.2-.98,1.13-.98,1.14l-.7-.27c.05-.13.52-1.28,1.45-1.59.31-.1.81-.14,1.39.24,1.85,1.4.53,6.48.37,7.05Z"/>
        </g>
      </g>
      <path class="cls-1" d="m96.29,107.02c5.01.03,1.22-16.14,5.15-20.06,2-1.99,4.91-1.66,7.41-1.03,2.91.74,5.92,1.75,8.99,1.83,3.25.09,6.34-1.11,9.46-1.86,2.42-.59,5.05-.85,6.97,1.06,3.93,3.91.14,20.08,5.15,20.06-.35-3.74-.36-7.83,2.39-9.31h0c1.92-17.71-7.08-29.4-23.97-29.4s-25.89,11.69-23.97,29.4h0c2.23,1.45,2.74,5.4,2.39,9.31Z"/>
    </g>
    <path class="cls-6" d="m165.57,159.45c-15.76-7.03-32.94-9.52-32.94-9.52-7.88,8.22-22.57,8.33-29.53,0,0,0-17.18,2.49-32.94,9.52,9.8,16.08,27.5,26.83,47.71,26.83s37.91-10.74,47.71-26.83Z"/>
    <polygon class="cls-3" points="99.11 150.49 103.1 143.34 116.02 154.93 108.11 163.59 99.11 150.49"/>
    <polygon class="cls-3" points="136.61 150.49 132.62 143.34 119.7 154.93 127.6 163.59 136.61 150.49"/>
  </g>
</svg>