<svg width="54" height="53" viewBox="0 0 54 53" fill="none" xmlns="http://www.w3.org/2000/svg">
<path id="Vector" d="M48.5711 47.1258C48.5711 50.0319 46.1859 52.362 43.2111 52.362C41.7895 52.362 40.4262 51.8103 39.421 50.8283C38.4158 49.8463 37.8511 48.5145 37.8511 47.1258C37.8511 44.2197 40.2363 41.8896 43.2111 41.8896C44.6326 41.8896 45.996 42.4412 47.0012 43.4232C48.0064 44.4052 48.5711 45.737 48.5711 47.1258ZM16.4111 41.8896C13.4363 41.8896 11.0511 44.2197 11.0511 47.1258C11.0511 48.5145 11.6158 49.8463 12.621 50.8283C13.6262 51.8103 14.9895 52.362 16.4111 52.362C19.3859 52.362 21.7711 50.0319 21.7711 47.1258C21.7711 44.2197 19.3859 41.8896 16.4111 41.8896ZM16.9471 33.0666L16.8667 33.3807C16.8667 33.7473 17.1615 34.0353 17.5367 34.0353H48.5711V39.2715H16.4111C14.9895 39.2715 13.6262 38.7198 12.621 37.7378C11.6158 36.7558 11.0511 35.424 11.0511 34.0353C11.0511 33.1189 11.2923 32.255 11.6943 31.5219L15.3391 25.1076L5.69106 5.2362H0.331055V0H9.09466L11.6139 5.2362H51.2511C52.7251 5.2362 53.9311 6.41434 53.9311 7.85429C53.9311 8.29937 53.7971 8.74445 53.6095 9.16334L44.0151 26.1024C43.1039 27.6995 41.3351 28.7991 39.3251 28.7991H19.3591L16.9471 33.0666ZM20.4311 23.5629H24.4511V18.3267H17.9119L20.4311 23.5629ZM27.1311 18.3267V23.5629H35.1711V18.3267H27.1311ZM35.1711 15.7086V10.4724H27.1311V15.7086H35.1711ZM43.5059 18.3267H37.8511V23.5629H40.5311L43.5059 18.3267ZM47.9815 10.4724H37.8511V15.7086H45.0067L47.9815 10.4724ZM14.1063 10.4724L16.6255 15.7086H24.4511V10.4724H14.1063Z" fill="white"/>
</svg>
