<svg width="64" height="50" viewBox="0 0 64 50" fill="none" xmlns="http://www.w3.org/2000/svg">
<path id="Vector" d="M6.32099 50C4.58272 50 3.09413 49.51 1.85521 48.53C0.616301 47.55 -0.00210163 46.3733 5.36587e-06 45V20C5.36587e-06 18.625 0.619462 17.4475 1.85838 16.4675C3.09729 15.4875 4.58483 14.9983 6.32099 15H56.8889C58.6272 15 60.1158 15.49 61.3547 16.47C62.5936 17.45 63.212 18.6267 63.2099 20V45C63.2099 46.375 62.5904 47.5525 61.3515 48.5325C60.1126 49.5125 58.6251 50.0017 56.8889 50H6.32099ZM6.32099 45H56.8889V20H6.32099V45ZM25.284 42.5L44.2469 32.5L25.284 22.5V42.5ZM6.32099 12.5V7.5H56.8889V12.5H6.32099ZM15.8025 5V0H47.4074V5H15.8025Z" fill="white"/>
</svg>
