<svg width="56" height="56" viewBox="0 0 56 56" fill="none" xmlns="http://www.w3.org/2000/svg">
<g id="Group 9">
<path id="Vector" d="M28.0113 3C23.6666 3.00466 19.3979 4.13944 15.625 6.29275C11.852 8.44607 8.7046 11.5438 6.49228 15.2813C4.27995 19.0189 3.07884 23.2676 3.00704 27.6097C2.93525 31.9519 3.99524 36.2379 6.08279 40.0465L3 53L15.9593 49.9186C19.3018 51.7514 23.0193 52.7961 26.8276 52.973C30.6359 53.1499 34.4342 52.4543 37.9324 50.9393C41.4305 49.4243 44.5359 47.1301 47.0112 44.2318C49.4865 41.3336 51.2661 37.9081 52.2142 34.2172C53.1623 30.5262 53.2537 26.6675 52.4815 22.9358C51.7092 19.2041 50.0937 15.6983 47.7584 12.6862C45.4231 9.67414 42.4299 7.23554 39.0074 5.55676C35.5849 3.87797 31.8237 3.00345 28.0113 3Z" stroke="white" stroke-width="5.67" stroke-linecap="round" stroke-linejoin="round"/>
<path id="Vector_2" d="M35.1183 36.9651C34.2633 37.9835 33.1951 38.802 31.989 39.3625C30.783 39.9231 29.4685 40.2122 28.1384 40.2093C25.7246 40.2093 23.4095 39.2516 21.7016 37.5467C19.9937 35.8417 19.0327 33.5289 19.0296 31.1162V24.8837C19.0327 22.471 19.9937 20.1582 21.7016 18.4532C23.4095 16.7483 25.7246 15.7906 28.1384 15.7906C29.4713 15.7912 30.7878 16.0853 31.9942 16.6521C33.2006 17.2188 34.2672 18.0443 35.1183 19.0697M14.6904 24.6976H26.184M14.6904 31.3604H26.184" stroke="white" stroke-width="5.67" stroke-linecap="round" stroke-linejoin="round"/>
</g>
</svg>
