<svg width="50" height="60" viewBox="0 0 50 60" fill="none" xmlns="http://www.w3.org/2000/svg">
<path id="Vector" d="M3.08185e-06 42.1875V12.5C3.08185e-06 9.7396 0.71667 7.53856 2.15 5.8969C3.58334 4.25523 5.47084 3.00523 7.8125 2.1469C10.1563 1.28856 12.826 0.715648 15.8219 0.428148C18.8177 0.140648 21.8771 -0.00206085 25 2.2482e-05C28.4375 2.2482e-05 31.6802 0.143773 34.7281 0.431273C37.776 0.718772 40.4323 1.29169 42.6969 2.15002C44.9615 3.00836 46.7448 4.25836 48.0469 5.90002C49.349 7.54169 50 9.74169 50 12.5V42.1875C50 45.2604 48.9458 47.8521 46.8375 49.9625C44.7292 52.0729 42.1375 53.1271 39.0625 53.125L40.625 54.6875C41.5104 55.5729 41.7188 56.5761 41.25 57.6969C40.7812 58.8177 39.9219 59.3771 38.6719 59.375C38.3073 59.375 37.9552 59.3094 37.6156 59.1781C37.276 59.0469 36.9771 58.8521 36.7187 58.5938L31.25 53.125H18.75L13.2813 58.5938C13.0208 58.8542 12.7208 59.05 12.3813 59.1813C12.0417 59.3125 11.6917 59.3771 11.3313 59.375C10.1333 59.375 9.28646 58.8156 8.79063 57.6969C8.29479 56.5781 8.48958 55.575 9.375 54.6875L10.9375 53.125C7.86458 53.125 5.27292 52.0709 3.1625 49.9625C1.05209 47.8542 -0.00208025 45.2625 3.08185e-06 42.1875ZM25 6.25002C19.4792 6.25002 15.4427 6.57606 12.8906 7.22815C10.3385 7.88023 8.59375 8.59585 7.65625 9.37502H42.6562C41.875 8.4896 40.1958 7.7469 37.6187 7.1469C35.0417 6.5469 30.8354 6.24794 25 6.25002ZM6.25 25H21.875V15.625H6.25V25ZM39.0625 31.25H6.25H43.75H39.0625ZM28.125 25H43.75V15.625H28.125V25ZM14.0625 43.75C15.4167 43.75 16.5365 43.3073 17.4219 42.4219C18.3073 41.5365 18.75 40.4167 18.75 39.0625C18.75 37.7084 18.3073 36.5886 17.4219 35.7031C16.5365 34.8177 15.4167 34.375 14.0625 34.375C12.7083 34.375 11.5885 34.8177 10.7031 35.7031C9.81771 36.5886 9.375 37.7084 9.375 39.0625C9.375 40.4167 9.81771 41.5365 10.7031 42.4219C11.5885 43.3073 12.7083 43.75 14.0625 43.75ZM35.9375 43.75C37.2917 43.75 38.4115 43.3073 39.2969 42.4219C40.1823 41.5365 40.625 40.4167 40.625 39.0625C40.625 37.7084 40.1823 36.5886 39.2969 35.7031C38.4115 34.8177 37.2917 34.375 35.9375 34.375C34.5833 34.375 33.4635 34.8177 32.5781 35.7031C31.6927 36.5886 31.25 37.7084 31.25 39.0625C31.25 40.4167 31.6927 41.5365 32.5781 42.4219C33.4635 43.3073 34.5833 43.75 35.9375 43.75ZM10.9375 46.875H39.0625C40.4167 46.875 41.5365 46.4323 42.4219 45.5469C43.3073 44.6615 43.75 43.5417 43.75 42.1875V31.25H6.25V42.1875C6.25 43.5417 6.69271 44.6615 7.57813 45.5469C8.46354 46.4323 9.58333 46.875 10.9375 46.875ZM25 9.37502H42.6562H7.65625H25Z" fill="white"/>
</svg>
