<svg width="49" height="60" viewBox="0 0 49 60" fill="none" xmlns="http://www.w3.org/2000/svg">
<path opacity="0.63" d="M40.8022 31.876C40.8865 40.9561 48.7678 43.9777 48.855 44.0162C48.7883 44.2292 47.5957 48.3222 44.7029 52.5498C42.2022 56.205 39.6066 59.8466 35.5178 59.922C31.5006 59.996 30.2087 57.5397 25.6155 57.5397C21.0237 57.5397 19.5884 59.8466 15.7854 59.996C11.8388 60.1455 8.83345 56.0437 6.31208 52.4019C1.1594 44.9529 -2.7782 31.3523 2.50902 22.1718C5.13555 17.6126 9.82964 14.7258 14.9243 14.6517C18.7997 14.5779 22.4577 17.259 24.8268 17.259C27.1943 17.259 31.6396 14.0347 36.3127 14.5082C38.2688 14.5897 43.7604 15.2983 47.2865 20.4597C47.0022 20.6359 40.734 24.2847 40.8022 31.876ZM33.252 9.57997C35.3474 7.04371 36.7575 3.51317 36.3728 0C33.3526 0.121374 29.7006 2.0126 27.5342 4.54733C25.5928 6.79218 23.8926 10.3849 24.3514 13.8284C27.7178 14.0889 31.1566 12.1178 33.252 9.57997Z" fill="black"/>
</svg>
