<svg width="63" height="63" viewBox="0 0 63 63" fill="none" xmlns="http://www.w3.org/2000/svg">
<path d="M56.7 56.7C56.7 60.1965 53.8965 63 50.4 63C48.7291 63 47.1267 62.3363 45.9452 61.1548C44.7637 59.9733 44.1 58.3709 44.1 56.7C44.1 53.2035 46.9035 50.4 50.4 50.4C52.0709 50.4 53.6733 51.0638 54.8548 52.2452C56.0363 53.4267 56.7 55.0291 56.7 56.7ZM18.9 50.4C15.4035 50.4 12.6 53.2035 12.6 56.7C12.6 58.3709 13.2637 59.9733 14.4452 61.1548C15.6267 62.3363 17.2291 63 18.9 63C22.3965 63 25.2 60.1965 25.2 56.7C25.2 53.2035 22.3965 50.4 18.9 50.4ZM19.53 39.7845L19.4355 40.1625C19.4355 40.6035 19.782 40.95 20.223 40.95H56.7V47.25H18.9C17.2291 47.25 15.6267 46.5863 14.4452 45.4048C13.2637 44.2233 12.6 42.6209 12.6 40.95C12.6 39.8475 12.8835 38.808 13.356 37.926L17.64 30.2085L6.3 6.3H0V0H10.3005L13.2615 6.3H59.85C61.5825 6.3 63 7.7175 63 9.45C63 9.9855 62.8425 10.521 62.622 11.025L51.345 31.4055C50.274 33.327 48.195 34.65 45.8325 34.65H22.365L19.53 39.7845ZM23.625 28.35H28.35V22.05H20.664L23.625 28.35ZM31.5 22.05V28.35H40.95V22.05H31.5ZM40.95 18.9V12.6H31.5V18.9H40.95ZM50.7465 22.05H44.1V28.35H47.25L50.7465 22.05ZM56.007 12.6H44.1V18.9H52.5105L56.007 12.6ZM16.191 12.6L19.152 18.9H28.35V12.6H16.191Z" fill="#4F46E5"/>
</svg>
