<svg width="52" height="62" viewBox="0 0 52 62" fill="none" xmlns="http://www.w3.org/2000/svg">
<path d="M43.9908 4.63515C41.1678 1.39089 36.0647 0 29.5364 0H10.5894C9.9435 2.41143e-05 9.31878 0.232368 8.82757 0.65526C8.33636 1.07815 8.01088 1.66385 7.90965 2.30706L0.0204725 52.7557C-0.136339 53.7505 0.62766 54.6513 1.62768 54.6513H13.3249L16.2626 35.8642L16.1714 36.4525C16.3807 35.1245 17.5071 34.145 18.841 34.145H24.3995C35.3192 34.145 43.8694 29.6731 46.3671 16.7367C46.4412 16.3541 46.5054 15.9817 46.561 15.6179C46.2457 15.4495 46.2457 15.4495 46.561 15.6179C47.3047 10.8365 46.5559 7.58178 43.9908 4.63515Z" fill="#27346A"/>
<path d="M20.7384 13.8954C21.0582 13.7419 21.4079 13.6624 21.7621 13.6626H36.6162C38.3752 13.6626 40.0158 13.778 41.515 14.0213C41.9346 14.0887 42.3519 14.1692 42.7665 14.2627C43.3541 14.3935 43.9349 14.5535 44.5068 14.7422C45.2439 14.9903 45.9303 15.2794 46.5612 15.6179C47.3047 10.8346 46.5559 7.58178 43.9908 4.63515C41.1662 1.39089 36.0647 0 29.5364 0H10.5878C9.25369 0 8.11873 0.979283 7.90965 2.30706L0.0204737 52.7538C-0.136337 53.7503 0.627661 54.6499 1.62607 54.6499H13.3249L19.4197 15.6808C19.4796 15.2978 19.6309 14.9351 19.8606 14.6241C20.0904 14.3131 20.3916 14.0631 20.7384 13.8954Z" fill="#27346A"/>
<path d="M46.3669 16.7367C43.8693 29.6713 35.3192 34.145 24.3994 34.145H18.8393C17.5054 34.145 16.3787 35.1245 16.1715 36.4525L12.5168 59.8121C12.3802 60.6827 13.048 61.4716 13.9216 61.4716H23.7821C24.3469 61.4715 24.8932 61.2681 25.3226 60.8982C25.752 60.5282 26.0364 60.0159 26.1247 59.4534L26.2207 58.9468L28.0792 47.0712L28.1989 46.4149C28.2872 45.8524 28.5716 45.3401 29.001 44.9702C29.4303 44.6002 29.9766 44.3969 30.5414 44.3967H32.0171C41.569 44.3967 49.0483 40.484 51.2339 29.1681C52.1462 24.4392 51.6742 20.491 49.2608 17.7178C48.5289 16.8779 47.6198 16.1842 46.5608 15.6179C46.5035 15.9836 46.4413 16.3541 46.3669 16.7367Z" fill="#2790C3"/>
<path d="M43.9468 14.5672C43.5574 14.4525 43.1643 14.351 42.7681 14.2628C42.3533 14.1709 41.936 14.0909 41.5167 14.023C40.0158 13.7781 38.3764 13.6625 36.6158 13.6625H21.7636C21.4091 13.6617 21.0591 13.7419 20.7398 13.8972C20.3926 14.0643 20.0911 14.3142 19.8613 14.6253C19.6314 14.9364 19.4803 15.2993 19.4209 15.6825L16.264 35.8643L16.1729 36.4526C16.3805 35.1246 17.507 34.1451 18.8411 34.1451H24.4012C35.3208 34.1451 43.8709 29.6732 46.3685 16.7368C46.4429 16.3542 46.5053 15.9834 46.5626 15.618C45.9301 15.2813 45.2455 14.9905 44.5083 14.7439C44.3222 14.6817 44.1349 14.6228 43.9468 14.5672Z" fill="#1F264F"/>
</svg>
