<svg width="63" height="64" viewBox="0 0 63 64" fill="none" xmlns="http://www.w3.org/2000/svg">
<path d="M31.5 0.237671C14.1031 0.237671 0 14.3411 0 31.7377C0 49.1355 14.1034 63.2377 31.5 63.2377C48.8981 63.2377 63 49.1355 63 31.7377C63 14.3423 48.8981 0.239394 31.4995 0.239394L31.5 0.237671ZM45.9455 45.67C45.3812 46.5953 44.1699 46.8887 43.2446 46.3207C35.8487 41.8032 26.5385 40.7799 15.5738 43.2851C15.0661 43.4007 14.5332 43.3099 14.0924 43.0326C13.6516 42.7554 13.3389 42.3145 13.2231 41.8068C13.1654 41.5555 13.1578 41.2953 13.2008 41.041C13.2438 40.7867 13.3366 40.5435 13.4737 40.3251C13.6109 40.1067 13.7898 39.9175 14.0001 39.7684C14.2105 39.6192 14.4482 39.5131 14.6997 39.4559C26.6992 36.7144 36.9916 37.8947 45.2948 42.9691C46.2201 43.5371 46.5134 44.7447 45.9455 45.67ZM49.801 37.0929C49.0898 38.2483 47.5778 38.6133 46.4231 37.9023C37.956 32.6979 25.0491 31.1906 15.0344 34.2306C13.7355 34.6229 12.3638 33.891 11.9695 32.5943C11.5782 31.2954 12.3106 29.9262 13.6073 29.5314C25.0469 26.06 39.2687 27.7416 48.9923 33.7168C50.147 34.428 50.512 35.9397 49.801 37.0929ZM50.132 28.1614C39.9797 22.1312 23.2298 21.5765 13.5369 24.5188C11.9803 24.9908 10.3342 24.112 9.8627 22.5554C9.39094 20.9981 10.2688 19.3532 11.8265 18.88C22.9532 15.5021 41.4506 16.155 53.1388 23.0939C54.542 23.9247 55.0007 25.733 54.1694 27.131C53.3421 28.5313 51.5288 28.9927 50.1335 28.1614H50.132Z" fill="#1ED760"/>
</svg>
