<svg width="26" height="28" viewBox="0 0 26 28" fill="none" xmlns="http://www.w3.org/2000/svg">
<path d="M25.705 20.4543C24.9533 19.1674 23.8359 15.5259 23.8359 10.7697C23.8359 7.91339 22.6943 5.17408 20.6623 3.15437C18.6303 1.13466 15.8744 0 13.0007 0C10.127 0 7.37102 1.13466 5.33903 3.15437C3.30703 5.17408 2.16547 7.91339 2.16547 10.7697C2.16547 15.5272 1.04674 19.1674 0.295044 20.4543C0.103085 20.7815 0.00132094 21.1532 1.27733e-05 21.532C-0.00129539 21.9108 0.0978992 22.2831 0.287593 22.6116C0.477287 22.9401 0.750772 23.2131 1.08047 23.403C1.41016 23.5929 1.78441 23.6931 2.16547 23.6933H7.69278C7.94276 24.9092 8.60758 26.0019 9.57477 26.7866C10.542 27.5714 11.7522 28 13.0007 28C14.2492 28 15.4594 27.5714 16.4266 26.7866C17.3938 26.0019 18.0586 24.9092 18.3086 23.6933H23.8359C24.2168 23.6928 24.5909 23.5925 24.9204 23.4025C25.2499 23.2125 25.5232 22.9395 25.7127 22.6111C25.9023 22.2826 26.0014 21.9103 26 21.5317C25.9986 21.153 25.8969 20.7814 25.705 20.4543ZM13.0007 25.8473C12.3286 25.8471 11.6732 25.6398 11.1246 25.2541C10.5759 24.8684 10.161 24.3231 9.93702 23.6933H16.0643C15.8403 24.3231 15.4254 24.8684 14.8768 25.2541C14.3281 25.6398 13.6727 25.8471 13.0007 25.8473ZM2.16547 21.5394C3.20836 19.757 4.33251 15.6268 4.33251 10.7697C4.33251 8.48466 5.24576 6.2932 6.87136 4.67744C8.49695 3.06167 10.7017 2.15394 13.0007 2.15394C15.2996 2.15394 17.5044 3.06167 19.13 4.67744C20.7556 6.2932 21.6688 8.48466 21.6688 10.7697C21.6688 15.6228 22.7903 19.753 23.8359 21.5394H2.16547Z" fill="white"/>
</svg>
