<svg width="37" height="67" viewBox="0 0 37 67" fill="none" xmlns="http://www.w3.org/2000/svg">
<path id="Vector" d="M9.64832 33.5236L35.6722 59.4921C36.5574 60.3754 36.9858 61.4059 36.9575 62.5836C36.9292 63.7613 36.4713 64.7918 35.5837 65.6751C34.6986 66.5584 33.6659 67 32.4856 67C31.3054 67 30.2727 66.5584 29.3876 65.6751L2.1244 38.5583C1.41627 37.8517 0.885168 37.0567 0.531101 36.1735C0.177034 35.2902 0 34.4069 0 33.5236C0 32.6403 0.177034 31.7571 0.531101 30.8738C0.885168 29.9905 1.41627 29.1955 2.1244 28.4889L29.3876 1.28384C30.2727 0.400558 31.3208 -0.0269504 32.5317 0.00131465C33.7426 0.0295797 34.7894 0.486531 35.6722 1.37217C36.5574 2.25545 37 3.28594 37 4.46365C37 5.64136 36.5574 6.67186 35.6722 7.55514L9.64832 33.5236Z" fill="#005984"/>
</svg>
