<svg width="1920" height="961" viewBox="0 0 1920 961" fill="none" xmlns="http://www.w3.org/2000/svg">
<path d="M2086.99 961V258.181C2086.99 258.181 2092.67 49.8356 1724.8 69.2812C1497.01 106.783 1385.96 280.062 1244.61 348.927C1033.91 451.579 1032.59 366.52 817.423 520.233C602.252 673.945 704.073 961 704.073 961H2086.99Z" fill="#00A7F8"/>
<path d="M2086.99 961V258.181C2086.99 258.181 2092.67 49.8356 1724.8 69.2812C1497.01 106.783 1385.96 280.062 1244.61 348.927C1033.91 451.579 1032.59 366.52 817.423 520.233C602.252 673.945 704.073 961 704.073 961H2086.99Z" fill="black" fill-opacity="0.17"/>
<g filter="url(#filter0_b_155_10)">
<path d="M0 840H1039.92C1039.92 840 1238 761.008 1238 579.769C1238 502.662 1067.93 198.197 774.313 309.008C691.592 340.227 627.968 334.553 575.298 309.008C516.422 280.453 471.233 227.068 428.358 172.625C373.443 102.891 322.322 31.4209 251.101 8.16259C42.646 -20.9704 0 37.2443 0 37.2443V840Z" fill="#00A7F8"/>
<path d="M0 840H1039.92C1039.92 840 1238 761.008 1238 579.769C1238 502.662 1067.93 198.197 774.313 309.008C691.592 340.227 627.968 334.553 575.298 309.008C516.422 280.453 471.233 227.068 428.358 172.625C373.443 102.891 322.322 31.4209 251.101 8.16259C42.646 -20.9704 0 37.2443 0 37.2443V840Z" fill="black" fill-opacity="0.1"/>
</g>
<defs>
<filter id="filter0_b_155_10" x="-4" y="-4" width="1246" height="848" filterUnits="userSpaceOnUse" color-interpolation-filters="sRGB">
<feFlood flood-opacity="0" result="BackgroundImageFix"/>
<feGaussianBlur in="BackgroundImageFix" stdDeviation="2"/>
<feComposite in2="SourceAlpha" operator="in" result="effect1_backgroundBlur_155_10"/>
<feBlend mode="normal" in="SourceGraphic" in2="effect1_backgroundBlur_155_10" result="shape"/>
</filter>
</defs>
</svg>
