<svg width="1192" height="375" viewBox="0 0 1192 375" fill="none" xmlns="http://www.w3.org/2000/svg">
<path d="M1.54 355.106H10.384V357.086H4.158V361.244H9.284L8.954 363.246H4.158V368.02H10.714V370H1.54V355.106ZM19.4219 370V362.894C19.4219 362.278 19.3119 361.787 19.0919 361.42C18.8719 361.039 18.4979 360.848 17.9699 360.848C17.6325 360.848 17.3025 360.936 16.9799 361.112C16.6719 361.273 16.3932 361.515 16.1439 361.838C15.8945 362.161 15.6892 362.557 15.5279 363.026C15.3812 363.481 15.3079 363.994 15.3079 364.566V370H12.7999V364.456C12.7999 363.576 12.7412 362.843 12.6239 362.256C12.5065 361.655 12.3819 361.171 12.2499 360.804C12.0885 360.379 11.9125 360.034 11.7219 359.77L13.7019 358.978C13.8485 359.139 13.9952 359.337 14.1419 359.572C14.2592 359.777 14.3765 360.034 14.4939 360.342C14.6112 360.635 14.7065 360.973 14.7799 361.354C15.1612 360.474 15.7112 359.843 16.4299 359.462C17.1485 359.066 17.9039 358.868 18.6959 358.868C19.8252 358.868 20.6392 359.213 21.1379 359.902C21.6512 360.577 21.9079 361.493 21.9079 362.652V370H19.4219ZM24.0161 364.786C24.0161 363.803 24.1481 362.938 24.4121 362.19C24.6908 361.442 25.0648 360.819 25.5341 360.32C26.0181 359.807 26.5828 359.425 27.2281 359.176C27.8734 358.912 28.5701 358.78 29.3181 358.78C29.9781 358.78 30.5354 358.861 30.9901 359.022C31.4594 359.183 31.8408 359.403 32.1341 359.682C32.4274 359.961 32.6401 360.291 32.7721 360.672C32.9188 361.053 32.9921 361.464 32.9921 361.904C32.9921 362.432 32.8454 362.938 32.5521 363.422C32.2588 363.891 31.8334 364.309 31.2761 364.676C30.7334 365.028 30.0734 365.314 29.2961 365.534C28.5188 365.739 27.6461 365.849 26.6781 365.864C26.7221 366.201 26.7881 366.524 26.8761 366.832C26.9788 367.125 27.1181 367.389 27.2941 367.624C27.4848 367.844 27.7268 368.02 28.0201 368.152C28.3134 368.284 28.6801 368.35 29.1201 368.35C29.4428 368.35 29.7874 368.313 30.1541 368.24C30.5208 368.167 30.8581 368.079 31.1661 367.976C31.5328 367.859 31.8921 367.727 32.2441 367.58L32.9041 369.142C32.5228 369.333 32.1121 369.501 31.6721 369.648C31.2908 369.78 30.8508 369.897 30.3521 370C29.8534 370.103 29.3254 370.154 28.7681 370.154C27.9174 370.154 27.1914 370.029 26.5901 369.78C25.9888 369.516 25.4974 369.149 25.1161 368.68C24.7348 368.211 24.4561 367.646 24.2801 366.986C24.1041 366.326 24.0161 365.593 24.0161 364.786ZM29.1201 360.496C28.6361 360.496 28.2328 360.613 27.9101 360.848C27.6021 361.068 27.3528 361.361 27.1621 361.728C26.9714 362.08 26.8321 362.483 26.7441 362.938C26.6708 363.378 26.6268 363.825 26.6121 364.28C27.3161 364.251 27.9101 364.163 28.3941 364.016C28.8928 363.855 29.2961 363.664 29.6041 363.444C29.9121 363.209 30.1321 362.96 30.2641 362.696C30.4108 362.432 30.4841 362.168 30.4841 361.904C30.4841 361.479 30.3594 361.141 30.1101 360.892C29.8608 360.628 29.5308 360.496 29.1201 360.496ZM39.9805 361.332C39.7165 361.332 39.4525 361.398 39.1885 361.53C38.9245 361.662 38.6899 361.845 38.4845 362.08C38.2792 362.3 38.1105 362.571 37.9785 362.894C37.8465 363.217 37.7805 363.576 37.7805 363.972V370H35.2725V364.456C35.2725 363.576 35.2139 362.843 35.0965 362.256C34.9792 361.655 34.8545 361.171 34.7225 360.804C34.5612 360.379 34.3852 360.034 34.1945 359.77L36.1745 358.978C36.3065 359.139 36.4459 359.337 36.5925 359.572C36.7099 359.777 36.8272 360.019 36.9445 360.298C37.0619 360.577 37.1572 360.907 37.2305 361.288C37.5239 360.437 37.9492 359.829 38.5065 359.462C39.0639 359.081 39.6945 358.89 40.3985 358.89C40.7359 358.89 41.0512 358.934 41.3445 359.022C41.6379 359.095 41.7772 359.132 41.7625 359.132L41.0585 361.574C41.0732 361.574 40.9852 361.537 40.7945 361.464C40.6185 361.376 40.3472 361.332 39.9805 361.332ZM46.8856 358.78C48.5723 358.78 49.7969 359.279 50.5596 360.276C51.3223 361.273 51.7036 362.645 51.7036 364.39C51.7036 365.211 51.6009 365.981 51.3956 366.7C51.1903 367.404 50.8749 368.02 50.4496 368.548C50.0389 369.061 49.5183 369.472 48.8876 369.78C48.2569 370.073 47.5236 370.22 46.6876 370.22C45.8516 370.22 45.1256 370.095 44.5096 369.846C43.9083 369.582 43.4096 369.208 43.0136 368.724C42.6176 368.24 42.3243 367.653 42.1336 366.964C41.9576 366.275 41.8696 365.497 41.8696 364.632C41.8696 363.796 41.9723 363.026 42.1776 362.322C42.3829 361.603 42.6909 360.987 43.1016 360.474C43.5269 359.946 44.0549 359.535 44.6856 359.242C45.3163 358.934 46.0496 358.78 46.8856 358.78ZM46.6656 360.628C46.2403 360.628 45.8883 360.723 45.6096 360.914C45.3456 361.105 45.1329 361.376 44.9716 361.728C44.8249 362.065 44.7223 362.469 44.6636 362.938C44.6049 363.393 44.5756 363.884 44.5756 364.412C44.5756 364.955 44.6049 365.468 44.6636 365.952C44.7369 366.436 44.8616 366.861 45.0376 367.228C45.2136 367.58 45.4483 367.859 45.7416 368.064C46.0496 368.269 46.4383 368.372 46.9076 368.372C47.3329 368.372 47.6776 368.277 47.9416 368.086C48.2203 367.895 48.4329 367.631 48.5796 367.294C48.7409 366.942 48.8509 366.539 48.9096 366.084C48.9683 365.629 48.9976 365.138 48.9976 364.61C48.9976 364.067 48.9609 363.554 48.8876 363.07C48.8289 362.586 48.7116 362.161 48.5356 361.794C48.3596 361.427 48.1176 361.141 47.8096 360.936C47.5163 360.731 47.1349 360.628 46.6656 360.628Z" fill="#272727"/>
<path d="M89.54 355.106H98.384V357.086H92.158V361.376H97.284L96.954 363.356H92.158V370H89.54V355.106ZM98.2016 364.786C98.2016 363.803 98.3336 362.938 98.5976 362.19C98.8763 361.442 99.2503 360.819 99.7196 360.32C100.204 359.807 100.768 359.425 101.414 359.176C102.059 358.912 102.756 358.78 103.504 358.78C104.164 358.78 104.721 358.861 105.176 359.022C105.645 359.183 106.026 359.403 106.32 359.682C106.613 359.961 106.826 360.291 106.958 360.672C107.104 361.053 107.178 361.464 107.178 361.904C107.178 362.432 107.031 362.938 106.738 363.422C106.444 363.891 106.019 364.309 105.462 364.676C104.919 365.028 104.259 365.314 103.482 365.534C102.704 365.739 101.832 365.849 100.864 365.864C100.908 366.201 100.974 366.524 101.062 366.832C101.164 367.125 101.304 367.389 101.48 367.624C101.67 367.844 101.912 368.02 102.206 368.152C102.499 368.284 102.866 368.35 103.306 368.35C103.628 368.35 103.973 368.313 104.34 368.24C104.706 368.167 105.044 368.079 105.352 367.976C105.718 367.859 106.078 367.727 106.43 367.58L107.09 369.142C106.708 369.333 106.298 369.501 105.858 369.648C105.476 369.78 105.036 369.897 104.538 370C104.039 370.103 103.511 370.154 102.954 370.154C102.103 370.154 101.377 370.029 100.776 369.78C100.174 369.516 99.683 369.149 99.3016 368.68C98.9203 368.211 98.6416 367.646 98.4656 366.986C98.2896 366.326 98.2016 365.593 98.2016 364.786ZM103.306 360.496C102.822 360.496 102.418 360.613 102.096 360.848C101.788 361.068 101.538 361.361 101.348 361.728C101.157 362.08 101.018 362.483 100.93 362.938C100.856 363.378 100.812 363.825 100.798 364.28C101.502 364.251 102.096 364.163 102.58 364.016C103.078 363.855 103.482 363.664 103.79 363.444C104.098 363.209 104.318 362.96 104.45 362.696C104.596 362.432 104.67 362.168 104.67 361.904C104.67 361.479 104.545 361.141 104.296 360.892C104.046 360.628 103.716 360.496 103.306 360.496ZM109.26 354.49L111.768 354.05V360.76C112.032 360.159 112.399 359.697 112.868 359.374C113.352 359.037 113.968 358.868 114.716 358.868C115.405 358.868 115.999 359 116.498 359.264C117.011 359.513 117.437 359.88 117.774 360.364C118.111 360.833 118.361 361.405 118.522 362.08C118.683 362.755 118.764 363.503 118.764 364.324C118.764 365.16 118.632 365.937 118.368 366.656C118.119 367.36 117.759 367.969 117.29 368.482C116.835 368.995 116.285 369.399 115.64 369.692C114.995 369.985 114.283 370.132 113.506 370.132C113.066 370.132 112.597 370.095 112.098 370.022C111.599 369.963 111.137 369.897 110.712 369.824C110.228 369.736 109.744 369.626 109.26 369.494V354.49ZM114.298 360.628C113.931 360.628 113.594 360.753 113.286 361.002C112.978 361.251 112.707 361.581 112.472 361.992C112.252 362.403 112.076 362.865 111.944 363.378C111.827 363.891 111.768 364.419 111.768 364.962V368.152C111.9 368.181 112.113 368.225 112.406 368.284C112.699 368.343 112.971 368.372 113.22 368.372C113.763 368.372 114.217 368.277 114.584 368.086C114.951 367.895 115.244 367.631 115.464 367.294C115.684 366.957 115.838 366.553 115.926 366.084C116.014 365.615 116.058 365.101 116.058 364.544C116.058 364.031 116.043 363.539 116.014 363.07C115.985 362.601 115.904 362.183 115.772 361.816C115.655 361.449 115.479 361.163 115.244 360.958C115.009 360.738 114.694 360.628 114.298 360.628ZM125.875 361.332C125.611 361.332 125.347 361.398 125.083 361.53C124.819 361.662 124.584 361.845 124.379 362.08C124.174 362.3 124.005 362.571 123.873 362.894C123.741 363.217 123.675 363.576 123.675 363.972V370H121.167V364.456C121.167 363.576 121.108 362.843 120.991 362.256C120.874 361.655 120.749 361.171 120.617 360.804C120.456 360.379 120.28 360.034 120.089 359.77L122.069 358.978C122.201 359.139 122.34 359.337 122.487 359.572C122.604 359.777 122.722 360.019 122.839 360.298C122.956 360.577 123.052 360.907 123.125 361.288C123.418 360.437 123.844 359.829 124.401 359.462C124.958 359.081 125.589 358.89 126.293 358.89C126.63 358.89 126.946 358.934 127.239 359.022C127.532 359.095 127.672 359.132 127.657 359.132L126.953 361.574C126.968 361.574 126.88 361.537 126.689 361.464C126.513 361.376 126.242 361.332 125.875 361.332ZM127.764 364.786C127.764 363.803 127.896 362.938 128.16 362.19C128.439 361.442 128.813 360.819 129.282 360.32C129.766 359.807 130.331 359.425 130.976 359.176C131.621 358.912 132.318 358.78 133.066 358.78C133.726 358.78 134.283 358.861 134.738 359.022C135.207 359.183 135.589 359.403 135.882 359.682C136.175 359.961 136.388 360.291 136.52 360.672C136.667 361.053 136.74 361.464 136.74 361.904C136.74 362.432 136.593 362.938 136.3 363.422C136.007 363.891 135.581 364.309 135.024 364.676C134.481 365.028 133.821 365.314 133.044 365.534C132.267 365.739 131.394 365.849 130.426 365.864C130.47 366.201 130.536 366.524 130.624 366.832C130.727 367.125 130.866 367.389 131.042 367.624C131.233 367.844 131.475 368.02 131.768 368.152C132.061 368.284 132.428 368.35 132.868 368.35C133.191 368.35 133.535 368.313 133.902 368.24C134.269 368.167 134.606 368.079 134.914 367.976C135.281 367.859 135.64 367.727 135.992 367.58L136.652 369.142C136.271 369.333 135.86 369.501 135.42 369.648C135.039 369.78 134.599 369.897 134.1 370C133.601 370.103 133.073 370.154 132.516 370.154C131.665 370.154 130.939 370.029 130.338 369.78C129.737 369.516 129.245 369.149 128.864 368.68C128.483 368.211 128.204 367.646 128.028 366.986C127.852 366.326 127.764 365.593 127.764 364.786ZM132.868 360.496C132.384 360.496 131.981 360.613 131.658 360.848C131.35 361.068 131.101 361.361 130.91 361.728C130.719 362.08 130.58 362.483 130.492 362.938C130.419 363.378 130.375 363.825 130.36 364.28C131.064 364.251 131.658 364.163 132.142 364.016C132.641 363.855 133.044 363.664 133.352 363.444C133.66 363.209 133.88 362.96 134.012 362.696C134.159 362.432 134.232 362.168 134.232 361.904C134.232 361.479 134.107 361.141 133.858 360.892C133.609 360.628 133.279 360.496 132.868 360.496ZM143.729 361.332C143.465 361.332 143.201 361.398 142.937 361.53C142.673 361.662 142.438 361.845 142.233 362.08C142.027 362.3 141.859 362.571 141.727 362.894C141.595 363.217 141.529 363.576 141.529 363.972V370H139.021V364.456C139.021 363.576 138.962 362.843 138.845 362.256C138.727 361.655 138.603 361.171 138.471 360.804C138.309 360.379 138.133 360.034 137.943 359.77L139.923 358.978C140.055 359.139 140.194 359.337 140.341 359.572C140.458 359.777 140.575 360.019 140.693 360.298C140.81 360.577 140.905 360.907 140.979 361.288C141.272 360.437 141.697 359.829 142.255 359.462C142.812 359.081 143.443 358.89 144.147 358.89C144.484 358.89 144.799 358.934 145.093 359.022C145.386 359.095 145.525 359.132 145.511 359.132L144.807 361.574C144.821 361.574 144.733 361.537 144.543 361.464C144.367 361.376 144.095 361.332 143.729 361.332ZM150.634 358.78C152.32 358.78 153.545 359.279 154.308 360.276C155.07 361.273 155.452 362.645 155.452 364.39C155.452 365.211 155.349 365.981 155.144 366.7C154.938 367.404 154.623 368.02 154.198 368.548C153.787 369.061 153.266 369.472 152.636 369.78C152.005 370.073 151.272 370.22 150.436 370.22C149.6 370.22 148.874 370.095 148.258 369.846C147.656 369.582 147.158 369.208 146.762 368.724C146.366 368.24 146.072 367.653 145.882 366.964C145.706 366.275 145.618 365.497 145.618 364.632C145.618 363.796 145.72 363.026 145.926 362.322C146.131 361.603 146.439 360.987 146.85 360.474C147.275 359.946 147.803 359.535 148.434 359.242C149.064 358.934 149.798 358.78 150.634 358.78ZM150.414 360.628C149.988 360.628 149.636 360.723 149.358 360.914C149.094 361.105 148.881 361.376 148.72 361.728C148.573 362.065 148.47 362.469 148.412 362.938C148.353 363.393 148.324 363.884 148.324 364.412C148.324 364.955 148.353 365.468 148.412 365.952C148.485 366.436 148.61 366.861 148.786 367.228C148.962 367.58 149.196 367.859 149.49 368.064C149.798 368.269 150.186 368.372 150.656 368.372C151.081 368.372 151.426 368.277 151.69 368.086C151.968 367.895 152.181 367.631 152.328 367.294C152.489 366.942 152.599 366.539 152.658 366.084C152.716 365.629 152.746 365.138 152.746 364.61C152.746 364.067 152.709 363.554 152.636 363.07C152.577 362.586 152.46 362.161 152.284 361.794C152.108 361.427 151.866 361.141 151.558 360.936C151.264 360.731 150.883 360.628 150.414 360.628Z" fill="#272727"/>
<path d="M201.9 370H200.052L197.566 364.346C197.493 364.185 197.397 363.965 197.28 363.686C197.177 363.407 197.06 363.099 196.928 362.762C196.796 362.425 196.657 362.073 196.51 361.706C196.363 361.325 196.224 360.943 196.092 360.562C196.092 360.943 196.085 361.325 196.07 361.706C196.07 362.073 196.063 362.425 196.048 362.762C196.033 363.085 196.019 363.378 196.004 363.642C196.004 363.891 196.004 364.089 196.004 364.236L195.784 370H193.32L194.2 355.062H196.246L200.008 364.39C200.14 364.727 200.287 365.094 200.448 365.49C200.624 365.886 200.785 366.275 200.932 366.656C201.079 366.275 201.233 365.893 201.394 365.512C201.555 365.116 201.709 364.742 201.856 364.39L205.64 355.062H207.642L208.522 370H206.08L205.838 364.302C205.823 363.935 205.801 363.415 205.772 362.74C205.757 362.051 205.743 361.354 205.728 360.65C205.596 361.017 205.457 361.383 205.31 361.75C205.178 362.117 205.053 362.461 204.936 362.784C204.819 363.107 204.709 363.4 204.606 363.664C204.503 363.928 204.423 364.133 204.364 364.28L201.9 370ZM219.977 364.698C219.977 365.578 220.028 366.319 220.131 366.92C220.248 367.507 220.373 367.983 220.505 368.35C220.666 368.79 220.842 369.135 221.033 369.384L219.075 370.176C218.884 369.985 218.708 369.758 218.547 369.494C218.415 369.259 218.29 368.981 218.173 368.658C218.056 368.321 217.982 367.925 217.953 367.47C217.704 368.35 217.3 369.017 216.743 369.472C216.2 369.912 215.46 370.132 214.521 370.132C213.832 370.132 213.23 370.007 212.717 369.758C212.218 369.494 211.8 369.127 211.463 368.658C211.126 368.174 210.876 367.595 210.715 366.92C210.554 366.245 210.473 365.497 210.473 364.676C210.473 363.84 210.598 363.07 210.847 362.366C211.111 361.647 211.47 361.031 211.925 360.518C212.394 360.005 212.952 359.601 213.597 359.308C214.242 359.015 214.954 358.868 215.731 358.868C216.171 358.868 216.626 358.905 217.095 358.978C217.579 359.037 218.026 359.103 218.437 359.176C218.848 359.249 219.192 359.323 219.471 359.396C219.764 359.455 219.933 359.491 219.977 359.506V364.698ZM214.939 368.372C215.306 368.372 215.643 368.247 215.951 367.998C216.259 367.749 216.523 367.426 216.743 367.03C216.978 366.619 217.154 366.157 217.271 365.644C217.403 365.116 217.469 364.581 217.469 364.038V360.87C217.322 360.826 217.102 360.775 216.809 360.716C216.516 360.657 216.252 360.628 216.017 360.628C215.46 360.628 214.998 360.723 214.631 360.914C214.279 361.105 213.993 361.369 213.773 361.706C213.553 362.043 213.399 362.447 213.311 362.916C213.223 363.385 213.179 363.899 213.179 364.456C213.179 364.969 213.194 365.461 213.223 365.93C213.252 366.399 213.326 366.817 213.443 367.184C213.575 367.551 213.758 367.844 213.993 368.064C214.228 368.269 214.543 368.372 214.939 368.372ZM227.404 361.332C227.14 361.332 226.876 361.398 226.612 361.53C226.348 361.662 226.114 361.845 225.908 362.08C225.703 362.3 225.534 362.571 225.402 362.894C225.27 363.217 225.204 363.576 225.204 363.972V370H222.696V364.456C222.696 363.576 222.638 362.843 222.52 362.256C222.403 361.655 222.278 361.171 222.146 360.804C221.985 360.379 221.809 360.034 221.618 359.77L223.598 358.978C223.73 359.139 223.87 359.337 224.016 359.572C224.134 359.777 224.251 360.019 224.368 360.298C224.486 360.577 224.581 360.907 224.654 361.288C224.948 360.437 225.373 359.829 225.93 359.462C226.488 359.081 227.118 358.89 227.822 358.89C228.16 358.89 228.475 358.934 228.768 359.022C229.062 359.095 229.201 359.132 229.186 359.132L228.482 361.574C228.497 361.574 228.409 361.537 228.218 361.464C228.042 361.376 227.771 361.332 227.404 361.332ZM229.849 370V368.504L234.711 360.804C233.963 360.848 233.223 360.87 232.489 360.87H230.333L230.025 359.044H237.637V360.54L232.841 368.24C233.501 368.196 234.161 368.174 234.821 368.174H237.835V370H229.849ZM243.956 358.78C245.643 358.78 246.867 359.279 247.63 360.276C248.393 361.273 248.774 362.645 248.774 364.39C248.774 365.211 248.671 365.981 248.466 366.7C248.261 367.404 247.945 368.02 247.52 368.548C247.109 369.061 246.589 369.472 245.958 369.78C245.327 370.073 244.594 370.22 243.758 370.22C242.922 370.22 242.196 370.095 241.58 369.846C240.979 369.582 240.48 369.208 240.084 368.724C239.688 368.24 239.395 367.653 239.204 366.964C239.028 366.275 238.94 365.497 238.94 364.632C238.94 363.796 239.043 363.026 239.248 362.322C239.453 361.603 239.761 360.987 240.172 360.474C240.597 359.946 241.125 359.535 241.756 359.242C242.387 358.934 243.12 358.78 243.956 358.78ZM243.736 360.628C243.311 360.628 242.959 360.723 242.68 360.914C242.416 361.105 242.203 361.376 242.042 361.728C241.895 362.065 241.793 362.469 241.734 362.938C241.675 363.393 241.646 363.884 241.646 364.412C241.646 364.955 241.675 365.468 241.734 365.952C241.807 366.436 241.932 366.861 242.108 367.228C242.284 367.58 242.519 367.859 242.812 368.064C243.12 368.269 243.509 368.372 243.978 368.372C244.403 368.372 244.748 368.277 245.012 368.086C245.291 367.895 245.503 367.631 245.65 367.294C245.811 366.942 245.921 366.539 245.98 366.084C246.039 365.629 246.068 365.138 246.068 364.61C246.068 364.067 246.031 363.554 245.958 363.07C245.899 362.586 245.782 362.161 245.606 361.794C245.43 361.427 245.188 361.141 244.88 360.936C244.587 360.731 244.205 360.628 243.736 360.628Z" fill="#272727"/>
<path d="M290.61 355.106H292.678L298.42 370H295.626L294.262 366.106H288.894L287.486 370H284.89L290.61 355.106ZM293.58 364.17C293.111 362.85 292.707 361.655 292.37 360.584C292.033 359.499 291.776 358.648 291.6 358.032C291.395 358.692 291.123 359.557 290.786 360.628C290.449 361.699 290.053 362.879 289.598 364.17H293.58ZM299.75 354.49L302.258 354.05V360.76C302.522 360.159 302.889 359.697 303.358 359.374C303.842 359.037 304.458 358.868 305.206 358.868C305.896 358.868 306.49 359 306.988 359.264C307.502 359.513 307.927 359.88 308.264 360.364C308.602 360.833 308.851 361.405 309.012 362.08C309.174 362.755 309.254 363.503 309.254 364.324C309.254 365.16 309.122 365.937 308.858 366.656C308.609 367.36 308.25 367.969 307.78 368.482C307.326 368.995 306.776 369.399 306.13 369.692C305.485 369.985 304.774 370.132 303.996 370.132C303.556 370.132 303.087 370.095 302.588 370.022C302.09 369.963 301.628 369.897 301.202 369.824C300.718 369.736 300.234 369.626 299.75 369.494V354.49ZM304.788 360.628C304.422 360.628 304.084 360.753 303.776 361.002C303.468 361.251 303.197 361.581 302.962 361.992C302.742 362.403 302.566 362.865 302.434 363.378C302.317 363.891 302.258 364.419 302.258 364.962V368.152C302.39 368.181 302.603 368.225 302.896 368.284C303.19 368.343 303.461 368.372 303.71 368.372C304.253 368.372 304.708 368.277 305.074 368.086C305.441 367.895 305.734 367.631 305.954 367.294C306.174 366.957 306.328 366.553 306.416 366.084C306.504 365.615 306.548 365.101 306.548 364.544C306.548 364.031 306.534 363.539 306.504 363.07C306.475 362.601 306.394 362.183 306.262 361.816C306.145 361.449 305.969 361.163 305.734 360.958C305.5 360.738 305.184 360.628 304.788 360.628ZM316.365 361.332C316.101 361.332 315.837 361.398 315.573 361.53C315.309 361.662 315.075 361.845 314.869 362.08C314.664 362.3 314.495 362.571 314.363 362.894C314.231 363.217 314.165 363.576 314.165 363.972V370H311.657V364.456C311.657 363.576 311.599 362.843 311.481 362.256C311.364 361.655 311.239 361.171 311.107 360.804C310.946 360.379 310.77 360.034 310.579 359.77L312.559 358.978C312.691 359.139 312.831 359.337 312.977 359.572C313.095 359.777 313.212 360.019 313.329 360.298C313.447 360.577 313.542 360.907 313.615 361.288C313.909 360.437 314.334 359.829 314.891 359.462C315.449 359.081 316.079 358.89 316.783 358.89C317.121 358.89 317.436 358.934 317.729 359.022C318.023 359.095 318.162 359.132 318.147 359.132L317.443 361.574C317.458 361.574 317.37 361.537 317.179 361.464C317.003 361.376 316.732 361.332 316.365 361.332ZM321.89 370.088C321.113 370.088 320.519 369.861 320.108 369.406C319.698 368.937 319.492 368.335 319.492 367.602V359.044H322V367.382C322 367.719 322.052 367.947 322.154 368.064C322.257 368.181 322.411 368.24 322.616 368.24C322.675 368.24 322.734 368.24 322.792 368.24C322.866 368.24 322.932 368.233 322.99 368.218C323.049 368.218 323.115 368.211 323.188 368.196L323.452 369.78C323.35 369.839 323.218 369.89 323.056 369.934C322.924 369.978 322.756 370.015 322.55 370.044C322.36 370.073 322.14 370.088 321.89 370.088ZM320.79 354.16C321.26 354.16 321.619 354.299 321.868 354.578C322.118 354.857 322.242 355.216 322.242 355.656C322.242 356.096 322.11 356.463 321.846 356.756C321.597 357.049 321.223 357.196 320.724 357.196C320.255 357.196 319.888 357.057 319.624 356.778C319.375 356.485 319.25 356.133 319.25 355.722C319.25 355.267 319.375 354.893 319.624 354.6C319.888 354.307 320.277 354.16 320.79 354.16ZM327.541 370.088C326.705 370.088 326.089 369.861 325.693 369.406C325.297 368.937 325.099 368.343 325.099 367.624V354.49L327.607 354.028V367.382C327.607 367.719 327.673 367.954 327.805 368.086C327.937 368.218 328.128 368.284 328.377 368.284C328.524 368.284 328.663 368.277 328.795 368.262C328.942 368.247 329.074 368.225 329.191 368.196C329.323 368.167 329.441 368.137 329.543 368.108L329.851 369.692C329.661 369.765 329.448 369.831 329.213 369.89C329.008 369.949 328.766 369.993 328.487 370.022C328.209 370.066 327.893 370.088 327.541 370.088Z" fill="#272727"/>
<path d="M375.9 370H374.052L371.566 364.346C371.493 364.185 371.397 363.965 371.28 363.686C371.177 363.407 371.06 363.099 370.928 362.762C370.796 362.425 370.657 362.073 370.51 361.706C370.363 361.325 370.224 360.943 370.092 360.562C370.092 360.943 370.085 361.325 370.07 361.706C370.07 362.073 370.063 362.425 370.048 362.762C370.033 363.085 370.019 363.378 370.004 363.642C370.004 363.891 370.004 364.089 370.004 364.236L369.784 370H367.32L368.2 355.062H370.246L374.008 364.39C374.14 364.727 374.287 365.094 374.448 365.49C374.624 365.886 374.785 366.275 374.932 366.656C375.079 366.275 375.233 365.893 375.394 365.512C375.555 365.116 375.709 364.742 375.856 364.39L379.64 355.062H381.642L382.522 370H380.08L379.838 364.302C379.823 363.935 379.801 363.415 379.772 362.74C379.757 362.051 379.743 361.354 379.728 360.65C379.596 361.017 379.457 361.383 379.31 361.75C379.178 362.117 379.053 362.461 378.936 362.784C378.819 363.107 378.709 363.4 378.606 363.664C378.503 363.928 378.423 364.133 378.364 364.28L375.9 370ZM393.977 364.698C393.977 365.578 394.028 366.319 394.131 366.92C394.248 367.507 394.373 367.983 394.505 368.35C394.666 368.79 394.842 369.135 395.033 369.384L393.075 370.176C392.884 369.985 392.708 369.758 392.547 369.494C392.415 369.259 392.29 368.981 392.173 368.658C392.056 368.321 391.982 367.925 391.953 367.47C391.704 368.35 391.3 369.017 390.743 369.472C390.2 369.912 389.46 370.132 388.521 370.132C387.832 370.132 387.23 370.007 386.717 369.758C386.218 369.494 385.8 369.127 385.463 368.658C385.126 368.174 384.876 367.595 384.715 366.92C384.554 366.245 384.473 365.497 384.473 364.676C384.473 363.84 384.598 363.07 384.847 362.366C385.111 361.647 385.47 361.031 385.925 360.518C386.394 360.005 386.952 359.601 387.597 359.308C388.242 359.015 388.954 358.868 389.731 358.868C390.171 358.868 390.626 358.905 391.095 358.978C391.579 359.037 392.026 359.103 392.437 359.176C392.848 359.249 393.192 359.323 393.471 359.396C393.764 359.455 393.933 359.491 393.977 359.506V364.698ZM388.939 368.372C389.306 368.372 389.643 368.247 389.951 367.998C390.259 367.749 390.523 367.426 390.743 367.03C390.978 366.619 391.154 366.157 391.271 365.644C391.403 365.116 391.469 364.581 391.469 364.038V360.87C391.322 360.826 391.102 360.775 390.809 360.716C390.516 360.657 390.252 360.628 390.017 360.628C389.46 360.628 388.998 360.723 388.631 360.914C388.279 361.105 387.993 361.369 387.773 361.706C387.553 362.043 387.399 362.447 387.311 362.916C387.223 363.385 387.179 363.899 387.179 364.456C387.179 364.969 387.194 365.461 387.223 365.93C387.252 366.399 387.326 366.817 387.443 367.184C387.575 367.551 387.758 367.844 387.993 368.064C388.228 368.269 388.543 368.372 388.939 368.372ZM405.882 365.556C405.882 365.996 405.911 366.399 405.97 366.766C406.043 367.133 406.117 367.499 406.19 367.866C406.278 368.218 406.359 368.577 406.432 368.944C406.505 369.311 406.542 369.714 406.542 370.154C406.542 371.709 406.146 372.867 405.354 373.63C404.562 374.393 403.491 374.774 402.142 374.774C401.702 374.774 401.262 374.73 400.822 374.642C400.382 374.569 399.971 374.481 399.59 374.378C399.223 374.275 398.908 374.173 398.644 374.07C398.38 373.967 398.204 373.894 398.116 373.85L398.732 371.936C398.937 372.024 399.165 372.112 399.414 372.2C399.678 372.303 399.942 372.398 400.206 372.486C400.485 372.574 400.771 372.647 401.064 372.706C401.357 372.765 401.643 372.794 401.922 372.794C402.743 372.794 403.337 372.545 403.704 372.046C404.071 371.562 404.254 370.931 404.254 370.154C404.254 369.45 404.107 368.724 403.814 367.976C403.403 368.753 402.853 369.311 402.164 369.648C401.489 369.971 400.778 370.132 400.03 370.132C398.871 370.132 398.043 369.795 397.544 369.12C397.06 368.445 396.818 367.521 396.818 366.348V359.044H399.326V366.282C399.326 366.898 399.436 367.382 399.656 367.734C399.876 368.086 400.25 368.262 400.778 368.262C401.057 368.262 401.35 368.181 401.658 368.02C401.981 367.859 402.267 367.639 402.516 367.36C402.78 367.067 402.993 366.722 403.154 366.326C403.33 365.915 403.418 365.475 403.418 365.006V359.044H405.992L405.882 365.556ZM413.122 358.78C414.809 358.78 416.033 359.279 416.796 360.276C417.559 361.273 417.94 362.645 417.94 364.39C417.94 365.211 417.837 365.981 417.632 366.7C417.427 367.404 417.111 368.02 416.686 368.548C416.275 369.061 415.755 369.472 415.124 369.78C414.493 370.073 413.76 370.22 412.924 370.22C412.088 370.22 411.362 370.095 410.746 369.846C410.145 369.582 409.646 369.208 409.25 368.724C408.854 368.24 408.561 367.653 408.37 366.964C408.194 366.275 408.106 365.497 408.106 364.632C408.106 363.796 408.209 363.026 408.414 362.322C408.619 361.603 408.927 360.987 409.338 360.474C409.763 359.946 410.291 359.535 410.922 359.242C411.553 358.934 412.286 358.78 413.122 358.78ZM412.902 360.628C412.477 360.628 412.125 360.723 411.846 360.914C411.582 361.105 411.369 361.376 411.208 361.728C411.061 362.065 410.959 362.469 410.9 362.938C410.841 363.393 410.812 363.884 410.812 364.412C410.812 364.955 410.841 365.468 410.9 365.952C410.973 366.436 411.098 366.861 411.274 367.228C411.45 367.58 411.685 367.859 411.978 368.064C412.286 368.269 412.675 368.372 413.144 368.372C413.569 368.372 413.914 368.277 414.178 368.086C414.457 367.895 414.669 367.631 414.816 367.294C414.977 366.942 415.087 366.539 415.146 366.084C415.205 365.629 415.234 365.138 415.234 364.61C415.234 364.067 415.197 363.554 415.124 363.07C415.065 362.586 414.948 362.161 414.772 361.794C414.596 361.427 414.354 361.141 414.046 360.936C413.753 360.731 413.371 360.628 412.902 360.628Z" fill="#272727"/>
<path d="M458.158 369.45C458.158 370.33 458.033 371.063 457.784 371.65C457.549 372.251 457.241 372.757 456.86 373.168C456.493 373.579 456.075 373.916 455.606 374.18C455.151 374.444 454.704 374.686 454.264 374.906L453.23 373.168C453.802 372.889 454.242 372.589 454.55 372.266C454.873 371.958 455.107 371.65 455.254 371.342C455.401 371.049 455.481 370.763 455.496 370.484C455.525 370.205 455.54 369.949 455.54 369.714V355.106H458.158V369.45ZM467.463 359.044H469.971V364.698C469.971 365.578 470.023 366.319 470.125 366.92C470.243 367.507 470.367 367.983 470.499 368.35C470.661 368.79 470.837 369.135 471.027 369.384L469.069 370.176C468.893 370.015 468.732 369.809 468.585 369.56C468.468 369.355 468.343 369.105 468.211 368.812C468.094 368.504 468.013 368.145 467.969 367.734C467.573 368.599 467.016 369.215 466.297 369.582C465.579 369.949 464.831 370.132 464.053 370.132C462.895 370.132 462.066 369.795 461.567 369.12C461.083 368.445 460.841 367.521 460.841 366.348V359.044H463.349V366.304C463.349 366.92 463.459 367.404 463.679 367.756C463.899 368.108 464.273 368.284 464.801 368.284C465.124 368.284 465.439 368.196 465.747 368.02C466.07 367.829 466.356 367.565 466.605 367.228C466.869 366.891 467.075 366.487 467.221 366.018C467.383 365.534 467.463 364.999 467.463 364.412V359.044ZM479.846 370V362.894C479.846 362.278 479.736 361.787 479.516 361.42C479.296 361.039 478.922 360.848 478.394 360.848C478.056 360.848 477.726 360.936 477.404 361.112C477.096 361.273 476.817 361.515 476.568 361.838C476.318 362.161 476.113 362.557 475.952 363.026C475.805 363.481 475.732 363.994 475.732 364.566V370H473.224V364.456C473.224 363.576 473.165 362.843 473.048 362.256C472.93 361.655 472.806 361.171 472.674 360.804C472.512 360.379 472.336 360.034 472.146 359.77L474.126 358.978C474.272 359.139 474.419 359.337 474.566 359.572C474.683 359.777 474.8 360.034 474.918 360.342C475.035 360.635 475.13 360.973 475.204 361.354C475.585 360.474 476.135 359.843 476.854 359.462C477.572 359.066 478.328 358.868 479.12 358.868C480.249 358.868 481.063 359.213 481.562 359.902C482.075 360.577 482.332 361.493 482.332 362.652V370H479.846ZM487.41 370.088C486.633 370.088 486.039 369.861 485.628 369.406C485.217 368.937 485.012 368.335 485.012 367.602V359.044H487.52V367.382C487.52 367.719 487.571 367.947 487.674 368.064C487.777 368.181 487.931 368.24 488.136 368.24C488.195 368.24 488.253 368.24 488.312 368.24C488.385 368.24 488.451 368.233 488.51 368.218C488.569 368.218 488.635 368.211 488.708 368.196L488.972 369.78C488.869 369.839 488.737 369.89 488.576 369.934C488.444 369.978 488.275 370.015 488.07 370.044C487.879 370.073 487.659 370.088 487.41 370.088ZM486.31 354.16C486.779 354.16 487.139 354.299 487.388 354.578C487.637 354.857 487.762 355.216 487.762 355.656C487.762 356.096 487.63 356.463 487.366 356.756C487.117 357.049 486.743 357.196 486.244 357.196C485.775 357.196 485.408 357.057 485.144 356.778C484.895 356.485 484.77 356.133 484.77 355.722C484.77 355.267 484.895 354.893 485.144 354.6C485.408 354.307 485.797 354.16 486.31 354.16ZM495.085 358.78C496.771 358.78 497.996 359.279 498.759 360.276C499.521 361.273 499.903 362.645 499.903 364.39C499.903 365.211 499.8 365.981 499.595 366.7C499.389 367.404 499.074 368.02 498.649 368.548C498.238 369.061 497.717 369.472 497.087 369.78C496.456 370.073 495.723 370.22 494.887 370.22C494.051 370.22 493.325 370.095 492.709 369.846C492.107 369.582 491.609 369.208 491.213 368.724C490.817 368.24 490.523 367.653 490.333 366.964C490.157 366.275 490.069 365.497 490.069 364.632C490.069 363.796 490.171 363.026 490.377 362.322C490.582 361.603 490.89 360.987 491.301 360.474C491.726 359.946 492.254 359.535 492.885 359.242C493.515 358.934 494.249 358.78 495.085 358.78ZM494.865 360.628C494.439 360.628 494.087 360.723 493.809 360.914C493.545 361.105 493.332 361.376 493.171 361.728C493.024 362.065 492.921 362.469 492.863 362.938C492.804 363.393 492.775 363.884 492.775 364.412C492.775 364.955 492.804 365.468 492.863 365.952C492.936 366.436 493.061 366.861 493.237 367.228C493.413 367.58 493.647 367.859 493.941 368.064C494.249 368.269 494.637 368.372 495.107 368.372C495.532 368.372 495.877 368.277 496.141 368.086C496.419 367.895 496.632 367.631 496.779 367.294C496.94 366.942 497.05 366.539 497.109 366.084C497.167 365.629 497.197 365.138 497.197 364.61C497.197 364.067 497.16 363.554 497.087 363.07C497.028 362.586 496.911 362.161 496.735 361.794C496.559 361.427 496.317 361.141 496.009 360.936C495.715 360.731 495.334 360.628 494.865 360.628Z" fill="#272727"/>
<path d="M540.158 369.45C540.158 370.33 540.033 371.063 539.784 371.65C539.549 372.251 539.241 372.757 538.86 373.168C538.493 373.579 538.075 373.916 537.606 374.18C537.151 374.444 536.704 374.686 536.264 374.906L535.23 373.168C535.802 372.889 536.242 372.589 536.55 372.266C536.873 371.958 537.107 371.65 537.254 371.342C537.401 371.049 537.481 370.763 537.496 370.484C537.525 370.205 537.54 369.949 537.54 369.714V355.106H540.158V369.45ZM549.463 359.044H551.971V364.698C551.971 365.578 552.023 366.319 552.125 366.92C552.243 367.507 552.367 367.983 552.499 368.35C552.661 368.79 552.837 369.135 553.027 369.384L551.069 370.176C550.893 370.015 550.732 369.809 550.585 369.56C550.468 369.355 550.343 369.105 550.211 368.812C550.094 368.504 550.013 368.145 549.969 367.734C549.573 368.599 549.016 369.215 548.297 369.582C547.579 369.949 546.831 370.132 546.053 370.132C544.895 370.132 544.066 369.795 543.567 369.12C543.083 368.445 542.841 367.521 542.841 366.348V359.044H545.349V366.304C545.349 366.92 545.459 367.404 545.679 367.756C545.899 368.108 546.273 368.284 546.801 368.284C547.124 368.284 547.439 368.196 547.747 368.02C548.07 367.829 548.356 367.565 548.605 367.228C548.869 366.891 549.075 366.487 549.221 366.018C549.383 365.534 549.463 364.999 549.463 364.412V359.044ZM557.358 370.088C556.522 370.088 555.906 369.861 555.51 369.406C555.114 368.937 554.916 368.343 554.916 367.624V354.49L557.424 354.028V367.382C557.424 367.719 557.49 367.954 557.622 368.086C557.754 368.218 557.944 368.284 558.194 368.284C558.34 368.284 558.48 368.277 558.612 368.262C558.758 368.247 558.89 368.225 559.008 368.196C559.14 368.167 559.257 368.137 559.36 368.108L559.668 369.692C559.477 369.765 559.264 369.831 559.03 369.89C558.824 369.949 558.582 369.993 558.304 370.022C558.025 370.066 557.71 370.088 557.358 370.088ZM563.738 370.088C562.961 370.088 562.367 369.861 561.956 369.406C561.545 368.937 561.34 368.335 561.34 367.602V359.044H563.848V367.382C563.848 367.719 563.899 367.947 564.002 368.064C564.105 368.181 564.259 368.24 564.464 368.24C564.523 368.24 564.581 368.24 564.64 368.24C564.713 368.24 564.779 368.233 564.838 368.218C564.897 368.218 564.963 368.211 565.036 368.196L565.3 369.78C565.197 369.839 565.065 369.89 564.904 369.934C564.772 369.978 564.603 370.015 564.398 370.044C564.207 370.073 563.987 370.088 563.738 370.088ZM562.638 354.16C563.107 354.16 563.467 354.299 563.716 354.578C563.965 354.857 564.09 355.216 564.09 355.656C564.09 356.096 563.958 356.463 563.694 356.756C563.445 357.049 563.071 357.196 562.572 357.196C562.103 357.196 561.736 357.057 561.472 356.778C561.223 356.485 561.098 356.133 561.098 355.722C561.098 355.267 561.223 354.893 561.472 354.6C561.736 354.307 562.125 354.16 562.638 354.16ZM571.413 358.78C573.1 358.78 574.324 359.279 575.087 360.276C575.85 361.273 576.231 362.645 576.231 364.39C576.231 365.211 576.128 365.981 575.923 366.7C575.718 367.404 575.402 368.02 574.977 368.548C574.566 369.061 574.046 369.472 573.415 369.78C572.784 370.073 572.051 370.22 571.215 370.22C570.379 370.22 569.653 370.095 569.037 369.846C568.436 369.582 567.937 369.208 567.541 368.724C567.145 368.24 566.852 367.653 566.661 366.964C566.485 366.275 566.397 365.497 566.397 364.632C566.397 363.796 566.5 363.026 566.705 362.322C566.91 361.603 567.218 360.987 567.629 360.474C568.054 359.946 568.582 359.535 569.213 359.242C569.844 358.934 570.577 358.78 571.413 358.78ZM571.193 360.628C570.768 360.628 570.416 360.723 570.137 360.914C569.873 361.105 569.66 361.376 569.499 361.728C569.352 362.065 569.25 362.469 569.191 362.938C569.132 363.393 569.103 363.884 569.103 364.412C569.103 364.955 569.132 365.468 569.191 365.952C569.264 366.436 569.389 366.861 569.565 367.228C569.741 367.58 569.976 367.859 570.269 368.064C570.577 368.269 570.966 368.372 571.435 368.372C571.86 368.372 572.205 368.277 572.469 368.086C572.748 367.895 572.96 367.631 573.107 367.294C573.268 366.942 573.378 366.539 573.437 366.084C573.496 365.629 573.525 365.138 573.525 364.61C573.525 364.067 573.488 363.554 573.415 363.07C573.356 362.586 573.239 362.161 573.063 361.794C572.887 361.427 572.645 361.141 572.337 360.936C572.044 360.731 571.662 360.628 571.193 360.628Z" fill="#272727"/>
<path d="M617.632 355.106H620.866L626.322 370H622.648L621.548 366.414H616.73L615.586 370H611.978L617.632 355.106ZM620.734 363.73C620.587 363.305 620.433 362.865 620.272 362.41C620.125 361.941 619.979 361.486 619.832 361.046C619.7 360.606 619.575 360.195 619.458 359.814C619.341 359.418 619.238 359.088 619.15 358.824C619.062 359.103 618.959 359.44 618.842 359.836C618.725 360.217 618.593 360.628 618.446 361.068C618.314 361.508 618.167 361.955 618.006 362.41C617.859 362.865 617.713 363.305 617.566 363.73H620.734ZM629.257 371.122C629.902 371.342 630.46 371.511 630.929 371.628C631.413 371.76 631.926 371.826 632.469 371.826C633.056 371.826 633.525 371.657 633.877 371.32C634.244 370.983 634.427 370.499 634.427 369.868C634.427 369.193 634.324 368.592 634.119 368.064C633.87 368.724 633.503 369.237 633.019 369.604C632.535 369.956 631.904 370.132 631.127 370.132C630.408 370.132 629.778 370 629.235 369.736C628.707 369.472 628.267 369.105 627.915 368.636C627.563 368.152 627.299 367.573 627.123 366.898C626.962 366.223 626.881 365.475 626.881 364.654C626.881 363.818 627.013 363.041 627.277 362.322C627.556 361.603 627.937 360.987 628.421 360.474C628.905 359.946 629.484 359.535 630.159 359.242C630.834 358.949 631.582 358.802 632.403 358.802C632.843 358.802 633.298 358.831 633.767 358.89C634.251 358.949 634.698 359.015 635.109 359.088C635.534 359.161 635.901 359.235 636.209 359.308C636.532 359.367 636.744 359.411 636.847 359.44L636.759 364.918C636.759 365.387 636.796 365.827 636.869 366.238C636.957 366.634 637.045 367.03 637.133 367.426C637.236 367.807 637.331 368.203 637.419 368.614C637.507 369.025 637.551 369.465 637.551 369.934C637.551 371.474 637.111 372.655 636.231 373.476C635.366 374.312 634.185 374.73 632.689 374.73C632.014 374.73 631.31 374.649 630.577 374.488C629.844 374.327 629.132 374.099 628.443 373.806L629.257 371.122ZM631.699 367.58C631.934 367.58 632.146 367.485 632.337 367.294C632.528 367.089 632.696 366.817 632.843 366.48C632.99 366.143 633.1 365.754 633.173 365.314C633.261 364.874 633.305 364.412 633.305 363.928V361.53C633.202 361.486 633.056 361.449 632.865 361.42C632.689 361.376 632.535 361.354 632.403 361.354C632.051 361.354 631.758 361.435 631.523 361.596C631.288 361.743 631.098 361.955 630.951 362.234C630.819 362.498 630.724 362.821 630.665 363.202C630.606 363.583 630.577 363.994 630.577 364.434C630.577 364.845 630.584 365.241 630.599 365.622C630.614 365.989 630.658 366.319 630.731 366.612C630.819 366.905 630.936 367.14 631.083 367.316C631.23 367.492 631.435 367.58 631.699 367.58ZM643.954 358.736C645.7 358.736 646.968 359.235 647.76 360.232C648.567 361.229 648.97 362.608 648.97 364.368C648.97 365.204 648.86 365.981 648.64 366.7C648.435 367.404 648.112 368.02 647.672 368.548C647.247 369.061 646.704 369.472 646.044 369.78C645.399 370.073 644.644 370.22 643.778 370.22C642.898 370.22 642.136 370.095 641.49 369.846C640.86 369.582 640.339 369.208 639.928 368.724C639.532 368.24 639.232 367.653 639.026 366.964C638.836 366.26 638.74 365.475 638.74 364.61C638.74 363.774 638.843 362.997 639.048 362.278C639.268 361.559 639.591 360.943 640.016 360.43C640.456 359.902 640.999 359.491 641.644 359.198C642.304 358.89 643.074 358.736 643.954 358.736ZM643.756 361.354C643.492 361.354 643.272 361.435 643.096 361.596C642.92 361.743 642.781 361.955 642.678 362.234C642.59 362.498 642.524 362.813 642.48 363.18C642.451 363.547 642.436 363.943 642.436 364.368C642.436 364.808 642.458 365.226 642.502 365.622C642.546 366.018 642.62 366.363 642.722 366.656C642.84 366.949 643.001 367.184 643.206 367.36C643.412 367.521 643.668 367.602 643.976 367.602C644.24 367.602 644.46 367.521 644.636 367.36C644.812 367.199 644.944 366.986 645.032 366.722C645.135 366.443 645.201 366.121 645.23 365.754C645.274 365.387 645.296 364.999 645.296 364.588C645.296 364.133 645.274 363.715 645.23 363.334C645.186 362.938 645.106 362.593 644.988 362.3C644.886 362.007 644.732 361.779 644.526 361.618C644.321 361.442 644.064 361.354 643.756 361.354ZM654.24 358.758C654.798 358.758 655.311 358.809 655.78 358.912C656.264 359 656.69 359.103 657.056 359.22C657.482 359.367 657.87 359.521 658.222 359.682L657.122 362.146C657.005 362.087 656.851 362.014 656.66 361.926C656.484 361.838 656.286 361.75 656.066 361.662C655.861 361.574 655.641 361.501 655.406 361.442C655.172 361.383 654.944 361.354 654.724 361.354C654.49 361.354 654.292 361.405 654.13 361.508C653.969 361.611 653.888 361.772 653.888 361.992C653.888 362.227 654.035 362.461 654.328 362.696C654.636 362.916 655.04 363.129 655.538 363.334C656.418 363.701 657.093 364.141 657.562 364.654C658.046 365.153 658.288 365.827 658.288 366.678C658.288 367.147 658.2 367.602 658.024 368.042C657.863 368.467 657.614 368.841 657.276 369.164C656.954 369.487 656.543 369.743 656.044 369.934C655.546 370.125 654.974 370.22 654.328 370.22C653.815 370.22 653.331 370.183 652.876 370.11C652.436 370.037 652.026 369.949 651.644 369.846C651.278 369.729 650.948 369.619 650.654 369.516C650.361 369.399 650.126 369.296 649.95 369.208L651.094 366.678C651.168 366.707 651.292 366.773 651.468 366.876C651.659 366.979 651.872 367.081 652.106 367.184C652.356 367.287 652.612 367.382 652.876 367.47C653.155 367.543 653.419 367.58 653.668 367.58C653.976 367.58 654.226 367.521 654.416 367.404C654.622 367.287 654.724 367.111 654.724 366.876C654.724 366.597 654.6 366.348 654.35 366.128C654.116 365.908 653.808 365.725 653.426 365.578C652.326 365.138 651.534 364.647 651.05 364.104C650.581 363.547 650.346 362.857 650.346 362.036C650.346 361.567 650.434 361.134 650.61 360.738C650.786 360.342 651.043 359.997 651.38 359.704C651.718 359.411 652.121 359.183 652.59 359.022C653.074 358.846 653.624 358.758 654.24 358.758ZM659.099 359.044H660.903L661.277 356.778L664.291 356.118V359.044H666.887L666.469 361.596H664.291V366.502C664.291 367.147 664.628 367.47 665.303 367.47C665.67 367.47 666.022 367.433 666.359 367.36C666.535 367.316 666.711 367.272 666.887 367.228L667.481 369.56C667.188 369.663 666.777 369.78 666.249 369.912C665.736 370.029 665.105 370.088 664.357 370.088C663.257 370.088 662.392 369.861 661.761 369.406C661.145 368.951 660.837 368.181 660.837 367.096V361.596H659.099V359.044ZM672.98 358.736C674.725 358.736 675.994 359.235 676.786 360.232C677.593 361.229 677.996 362.608 677.996 364.368C677.996 365.204 677.886 365.981 677.666 366.7C677.461 367.404 677.138 368.02 676.698 368.548C676.273 369.061 675.73 369.472 675.07 369.78C674.425 370.073 673.669 370.22 672.804 370.22C671.924 370.22 671.161 370.095 670.516 369.846C669.885 369.582 669.365 369.208 668.954 368.724C668.558 368.24 668.257 367.653 668.052 366.964C667.861 366.26 667.766 365.475 667.766 364.61C667.766 363.774 667.869 362.997 668.074 362.278C668.294 361.559 668.617 360.943 669.042 360.43C669.482 359.902 670.025 359.491 670.67 359.198C671.33 358.89 672.1 358.736 672.98 358.736ZM672.782 361.354C672.518 361.354 672.298 361.435 672.122 361.596C671.946 361.743 671.807 361.955 671.704 362.234C671.616 362.498 671.55 362.813 671.506 363.18C671.477 363.547 671.462 363.943 671.462 364.368C671.462 364.808 671.484 365.226 671.528 365.622C671.572 366.018 671.645 366.363 671.748 366.656C671.865 366.949 672.027 367.184 672.232 367.36C672.437 367.521 672.694 367.602 673.002 367.602C673.266 367.602 673.486 367.521 673.662 367.36C673.838 367.199 673.97 366.986 674.058 366.722C674.161 366.443 674.227 366.121 674.256 365.754C674.3 365.387 674.322 364.999 674.322 364.588C674.322 364.133 674.3 363.715 674.256 363.334C674.212 362.938 674.131 362.593 674.014 362.3C673.911 362.007 673.757 361.779 673.552 361.618C673.347 361.442 673.09 361.354 672.782 361.354Z" fill="#272727"/>
<path d="M719.83 354.908C720.343 354.908 720.835 354.959 721.304 355.062C721.773 355.15 722.199 355.26 722.58 355.392C722.976 355.509 723.306 355.634 723.57 355.766C723.849 355.898 724.039 356.001 724.142 356.074L723.064 357.966L722.778 357.812C722.587 357.709 722.338 357.592 722.03 357.46C721.722 357.328 721.385 357.211 721.018 357.108C720.651 357.005 720.299 356.954 719.962 356.954C719.434 356.954 718.972 357.079 718.576 357.328C718.195 357.577 718.004 357.966 718.004 358.494C718.004 359.154 718.217 359.697 718.642 360.122C719.067 360.533 719.735 360.914 720.644 361.266C721.231 361.501 721.751 361.75 722.206 362.014C722.675 362.263 723.071 362.557 723.394 362.894C723.717 363.231 723.959 363.62 724.12 364.06C724.296 364.5 724.384 365.028 724.384 365.644C724.384 366.201 724.274 366.751 724.054 367.294C723.849 367.837 723.533 368.321 723.108 368.746C722.697 369.157 722.184 369.494 721.568 369.758C720.952 370.007 720.241 370.132 719.434 370.132C718.862 370.132 718.319 370.073 717.806 369.956C717.293 369.839 716.823 369.707 716.398 369.56C715.987 369.399 715.628 369.237 715.32 369.076C715.027 368.915 714.807 368.79 714.66 368.702L715.584 366.678L715.98 366.898C716.244 367.045 716.567 367.206 716.948 367.382C717.329 367.558 717.733 367.719 718.158 367.866C718.583 368.013 718.95 368.086 719.258 368.086C720.035 368.086 720.615 367.895 720.996 367.514C721.377 367.133 721.568 366.597 721.568 365.908C721.568 365.585 721.517 365.307 721.414 365.072C721.311 364.823 721.165 364.61 720.974 364.434C720.783 364.258 720.549 364.104 720.27 363.972C720.006 363.825 719.705 363.686 719.368 363.554C718.708 363.275 718.114 362.997 717.586 362.718C717.073 362.439 716.633 362.124 716.266 361.772C715.899 361.405 715.621 360.995 715.43 360.54C715.239 360.071 715.144 359.513 715.144 358.868C715.144 358.325 715.261 357.819 715.496 357.35C715.731 356.866 716.053 356.448 716.464 356.096C716.875 355.729 717.366 355.443 717.938 355.238C718.51 355.018 719.141 354.908 719.83 354.908ZM725.92 364.786C725.92 363.803 726.052 362.938 726.316 362.19C726.595 361.442 726.969 360.819 727.438 360.32C727.922 359.807 728.487 359.425 729.132 359.176C729.778 358.912 730.474 358.78 731.222 358.78C731.882 358.78 732.44 358.861 732.894 359.022C733.364 359.183 733.745 359.403 734.038 359.682C734.332 359.961 734.544 360.291 734.676 360.672C734.823 361.053 734.896 361.464 734.896 361.904C734.896 362.432 734.75 362.938 734.456 363.422C734.163 363.891 733.738 364.309 733.18 364.676C732.638 365.028 731.978 365.314 731.2 365.534C730.423 365.739 729.55 365.849 728.582 365.864C728.626 366.201 728.692 366.524 728.78 366.832C728.883 367.125 729.022 367.389 729.198 367.624C729.389 367.844 729.631 368.02 729.924 368.152C730.218 368.284 730.584 368.35 731.024 368.35C731.347 368.35 731.692 368.313 732.058 368.24C732.425 368.167 732.762 368.079 733.07 367.976C733.437 367.859 733.796 367.727 734.148 367.58L734.808 369.142C734.427 369.333 734.016 369.501 733.576 369.648C733.195 369.78 732.755 369.897 732.256 370C731.758 370.103 731.23 370.154 730.672 370.154C729.822 370.154 729.096 370.029 728.494 369.78C727.893 369.516 727.402 369.149 727.02 368.68C726.639 368.211 726.36 367.646 726.184 366.986C726.008 366.326 725.92 365.593 725.92 364.786ZM731.024 360.496C730.54 360.496 730.137 360.613 729.814 360.848C729.506 361.068 729.257 361.361 729.066 361.728C728.876 362.08 728.736 362.483 728.648 362.938C728.575 363.378 728.531 363.825 728.516 364.28C729.22 364.251 729.814 364.163 730.298 364.016C730.797 363.855 731.2 363.664 731.508 363.444C731.816 363.209 732.036 362.96 732.168 362.696C732.315 362.432 732.388 362.168 732.388 361.904C732.388 361.479 732.264 361.141 732.014 360.892C731.765 360.628 731.435 360.496 731.024 360.496ZM737.177 374.862V364.456C737.177 363.576 737.118 362.843 737.001 362.256C736.883 361.655 736.759 361.171 736.627 360.804C736.465 360.379 736.289 360.034 736.099 359.77L738.079 358.978C738.255 359.154 738.416 359.374 738.563 359.638C738.68 359.858 738.797 360.129 738.915 360.452C739.032 360.76 739.12 361.127 739.179 361.552C739.428 360.672 739.824 360.005 740.367 359.55C740.909 359.095 741.665 358.868 742.633 358.868C743.322 358.868 743.916 359 744.415 359.264C744.928 359.513 745.346 359.88 745.669 360.364C746.006 360.833 746.255 361.405 746.417 362.08C746.578 362.755 746.659 363.503 746.659 364.324C746.659 365.16 746.534 365.937 746.285 366.656C746.035 367.36 745.676 367.969 745.207 368.482C744.752 368.995 744.202 369.399 743.557 369.692C742.911 369.985 742.193 370.132 741.401 370.132C741.122 370.132 740.836 370.117 740.543 370.088C740.264 370.059 739.978 370.029 739.685 370V374.422L737.177 374.862ZM742.215 360.628C741.848 360.628 741.511 360.753 741.203 361.002C740.895 361.251 740.623 361.581 740.389 361.992C740.169 362.403 739.993 362.865 739.861 363.378C739.743 363.891 739.685 364.419 739.685 364.962V368.13C739.831 368.174 740.051 368.225 740.345 368.284C740.638 368.343 740.895 368.372 741.115 368.372C741.672 368.372 742.134 368.277 742.501 368.086C742.867 367.895 743.161 367.631 743.381 367.294C743.601 366.957 743.755 366.553 743.843 366.084C743.931 365.615 743.975 365.101 743.975 364.544C743.975 364.031 743.96 363.539 743.931 363.07C743.901 362.601 743.821 362.183 743.689 361.816C743.571 361.449 743.395 361.163 743.161 360.958C742.926 360.738 742.611 360.628 742.215 360.628ZM747.671 359.044H749.651L750.091 356.47L752.159 356.008V359.044H754.865L754.557 360.826H752.159V367.338C752.159 367.719 752.262 367.969 752.467 368.086C752.673 368.189 752.9 368.24 753.149 368.24C753.355 368.24 753.56 368.225 753.765 368.196C753.971 368.167 754.154 368.13 754.315 368.086C754.506 368.042 754.689 367.991 754.865 367.932L755.283 369.582L755.085 369.648C754.953 369.707 754.755 369.773 754.491 369.846C754.242 369.905 753.941 369.956 753.589 370C753.252 370.059 752.878 370.088 752.467 370.088C752.057 370.088 751.675 370.044 751.323 369.956C750.986 369.868 750.693 369.729 750.443 369.538C750.194 369.333 749.996 369.076 749.849 368.768C749.717 368.46 749.651 368.079 749.651 367.624V360.826H747.671V359.044ZM759.14 370.088C758.363 370.088 757.769 369.861 757.358 369.406C756.948 368.937 756.742 368.335 756.742 367.602V359.044H759.25V367.382C759.25 367.719 759.302 367.947 759.404 368.064C759.507 368.181 759.661 368.24 759.866 368.24C759.925 368.24 759.984 368.24 760.042 368.24C760.116 368.24 760.182 368.233 760.24 368.218C760.299 368.218 760.365 368.211 760.438 368.196L760.702 369.78C760.6 369.839 760.468 369.89 760.306 369.934C760.174 369.978 760.006 370.015 759.8 370.044C759.61 370.073 759.39 370.088 759.14 370.088ZM758.04 354.16C758.51 354.16 758.869 354.299 759.118 354.578C759.368 354.857 759.492 355.216 759.492 355.656C759.492 356.096 759.36 356.463 759.096 356.756C758.847 357.049 758.473 357.196 757.974 357.196C757.505 357.196 757.138 357.057 756.874 356.778C756.625 356.485 756.5 356.133 756.5 355.722C756.5 355.267 756.625 354.893 756.874 354.6C757.138 354.307 757.527 354.16 758.04 354.16ZM761.799 364.786C761.799 363.803 761.931 362.938 762.195 362.19C762.474 361.442 762.848 360.819 763.317 360.32C763.801 359.807 764.366 359.425 765.011 359.176C765.657 358.912 766.353 358.78 767.101 358.78C767.761 358.78 768.319 358.861 768.773 359.022C769.243 359.183 769.624 359.403 769.917 359.682C770.211 359.961 770.423 360.291 770.555 360.672C770.702 361.053 770.775 361.464 770.775 361.904C770.775 362.432 770.629 362.938 770.335 363.422C770.042 363.891 769.617 364.309 769.059 364.676C768.517 365.028 767.857 365.314 767.079 365.534C766.302 365.739 765.429 365.849 764.461 365.864C764.505 366.201 764.571 366.524 764.659 366.832C764.762 367.125 764.901 367.389 765.077 367.624C765.268 367.844 765.51 368.02 765.803 368.152C766.097 368.284 766.463 368.35 766.903 368.35C767.226 368.35 767.571 368.313 767.937 368.24C768.304 368.167 768.641 368.079 768.949 367.976C769.316 367.859 769.675 367.727 770.027 367.58L770.687 369.142C770.306 369.333 769.895 369.501 769.455 369.648C769.074 369.78 768.634 369.897 768.135 370C767.637 370.103 767.109 370.154 766.551 370.154C765.701 370.154 764.975 370.029 764.373 369.78C763.772 369.516 763.281 369.149 762.899 368.68C762.518 368.211 762.239 367.646 762.063 366.986C761.887 366.326 761.799 365.593 761.799 364.786ZM766.903 360.496C766.419 360.496 766.016 360.613 765.693 360.848C765.385 361.068 765.136 361.361 764.945 361.728C764.755 362.08 764.615 362.483 764.527 362.938C764.454 363.378 764.41 363.825 764.395 364.28C765.099 364.251 765.693 364.163 766.177 364.016C766.676 363.855 767.079 363.664 767.387 363.444C767.695 363.209 767.915 362.96 768.047 362.696C768.194 362.432 768.267 362.168 768.267 361.904C768.267 361.479 768.143 361.141 767.893 360.892C767.644 360.628 767.314 360.496 766.903 360.496ZM785.42 370V362.828C785.42 362.212 785.324 361.728 785.134 361.376C784.943 361.009 784.613 360.826 784.144 360.826C783.865 360.826 783.579 360.907 783.286 361.068C783.007 361.215 782.75 361.435 782.516 361.728C782.281 362.021 782.09 362.373 781.944 362.784C781.797 363.195 781.724 363.649 781.724 364.148V370H779.238V362.828C779.238 362.212 779.142 361.728 778.952 361.376C778.761 361.009 778.431 360.826 777.962 360.826C777.668 360.826 777.375 360.914 777.082 361.09C776.803 361.251 776.546 361.493 776.312 361.816C776.092 362.139 775.908 362.535 775.762 363.004C775.63 363.459 775.564 363.972 775.564 364.544V370H773.056V364.456C773.056 363.576 772.997 362.843 772.88 362.256C772.762 361.655 772.638 361.171 772.506 360.804C772.344 360.379 772.168 360.034 771.978 359.77L773.958 358.978C774.104 359.139 774.251 359.337 774.398 359.572C774.515 359.777 774.632 360.034 774.75 360.342C774.867 360.635 774.962 360.973 775.036 361.354C775.402 360.474 775.916 359.843 776.576 359.462C777.25 359.066 777.962 358.868 778.71 358.868C779.458 358.868 780.037 359.059 780.448 359.44C780.873 359.821 781.188 360.313 781.394 360.914C781.79 360.181 782.296 359.66 782.912 359.352C783.542 359.029 784.202 358.868 784.892 358.868C785.464 358.868 785.94 358.963 786.322 359.154C786.718 359.33 787.026 359.587 787.246 359.924C787.48 360.247 787.649 360.643 787.752 361.112C787.854 361.567 787.906 362.08 787.906 362.652V370H785.42ZM790.647 354.49L793.155 354.05V360.76C793.419 360.159 793.785 359.697 794.255 359.374C794.739 359.037 795.355 358.868 796.103 358.868C796.792 358.868 797.386 359 797.885 359.264C798.398 359.513 798.823 359.88 799.161 360.364C799.498 360.833 799.747 361.405 799.909 362.08C800.07 362.755 800.151 363.503 800.151 364.324C800.151 365.16 800.019 365.937 799.755 366.656C799.505 367.36 799.146 367.969 798.677 368.482C798.222 368.995 797.672 369.399 797.027 369.692C796.381 369.985 795.67 370.132 794.893 370.132C794.453 370.132 793.983 370.095 793.485 370.022C792.986 369.963 792.524 369.897 792.099 369.824C791.615 369.736 791.131 369.626 790.647 369.494V354.49ZM795.685 360.628C795.318 360.628 794.981 360.753 794.673 361.002C794.365 361.251 794.093 361.581 793.859 361.992C793.639 362.403 793.463 362.865 793.331 363.378C793.213 363.891 793.155 364.419 793.155 364.962V368.152C793.287 368.181 793.499 368.225 793.793 368.284C794.086 368.343 794.357 368.372 794.607 368.372C795.149 368.372 795.604 368.277 795.971 368.086C796.337 367.895 796.631 367.631 796.851 367.294C797.071 366.957 797.225 366.553 797.313 366.084C797.401 365.615 797.445 365.101 797.445 364.544C797.445 364.031 797.43 363.539 797.401 363.07C797.371 362.601 797.291 362.183 797.159 361.816C797.041 361.449 796.865 361.163 796.631 360.958C796.396 360.738 796.081 360.628 795.685 360.628ZM807.262 361.332C806.998 361.332 806.734 361.398 806.47 361.53C806.206 361.662 805.971 361.845 805.766 362.08C805.56 362.3 805.392 362.571 805.26 362.894C805.128 363.217 805.062 363.576 805.062 363.972V370H802.554V364.456C802.554 363.576 802.495 362.843 802.378 362.256C802.26 361.655 802.136 361.171 802.004 360.804C801.842 360.379 801.666 360.034 801.476 359.77L803.456 358.978C803.588 359.139 803.727 359.337 803.874 359.572C803.991 359.777 804.108 360.019 804.226 360.298C804.343 360.577 804.438 360.907 804.512 361.288C804.805 360.437 805.23 359.829 805.788 359.462C806.345 359.081 806.976 358.89 807.68 358.89C808.017 358.89 808.332 358.934 808.626 359.022C808.919 359.095 809.058 359.132 809.044 359.132L808.34 361.574C808.354 361.574 808.266 361.537 808.076 361.464C807.9 361.376 807.628 361.332 807.262 361.332ZM809.151 364.786C809.151 363.803 809.283 362.938 809.547 362.19C809.826 361.442 810.2 360.819 810.669 360.32C811.153 359.807 811.718 359.425 812.363 359.176C813.008 358.912 813.705 358.78 814.453 358.78C815.113 358.78 815.67 358.861 816.125 359.022C816.594 359.183 816.976 359.403 817.269 359.682C817.562 359.961 817.775 360.291 817.907 360.672C818.054 361.053 818.127 361.464 818.127 361.904C818.127 362.432 817.98 362.938 817.687 363.422C817.394 363.891 816.968 364.309 816.411 364.676C815.868 365.028 815.208 365.314 814.431 365.534C813.654 365.739 812.781 365.849 811.813 365.864C811.857 366.201 811.923 366.524 812.011 366.832C812.114 367.125 812.253 367.389 812.429 367.624C812.62 367.844 812.862 368.02 813.155 368.152C813.448 368.284 813.815 368.35 814.255 368.35C814.578 368.35 814.922 368.313 815.289 368.24C815.656 368.167 815.993 368.079 816.301 367.976C816.668 367.859 817.027 367.727 817.379 367.58L818.039 369.142C817.658 369.333 817.247 369.501 816.807 369.648C816.426 369.78 815.986 369.897 815.487 370C814.988 370.103 814.46 370.154 813.903 370.154C813.052 370.154 812.326 370.029 811.725 369.78C811.124 369.516 810.632 369.149 810.251 368.68C809.87 368.211 809.591 367.646 809.415 366.986C809.239 366.326 809.151 365.593 809.151 364.786ZM814.255 360.496C813.771 360.496 813.368 360.613 813.045 360.848C812.737 361.068 812.488 361.361 812.297 361.728C812.106 362.08 811.967 362.483 811.879 362.938C811.806 363.378 811.762 363.825 811.747 364.28C812.451 364.251 813.045 364.163 813.529 364.016C814.028 363.855 814.431 363.664 814.739 363.444C815.047 363.209 815.267 362.96 815.399 362.696C815.546 362.432 815.619 362.168 815.619 361.904C815.619 361.479 815.494 361.141 815.245 360.892C814.996 360.628 814.666 360.496 814.255 360.496Z" fill="#272727"/>
<path d="M861.502 354.908C862.602 354.908 863.541 355.084 864.318 355.436C865.095 355.788 865.733 356.287 866.232 356.932C866.745 357.577 867.119 358.369 867.354 359.308C867.589 360.232 867.706 361.273 867.706 362.432C867.706 363.576 867.574 364.625 867.31 365.578C867.061 366.517 866.665 367.323 866.122 367.998C865.594 368.673 864.919 369.201 864.098 369.582C863.291 369.949 862.331 370.132 861.216 370.132C860.116 370.132 859.17 369.971 858.378 369.648C857.601 369.311 856.955 368.827 856.442 368.196C855.943 367.551 855.577 366.773 855.342 365.864C855.107 364.955 854.99 363.913 854.99 362.74C854.99 361.596 855.115 360.547 855.364 359.594C855.628 358.626 856.024 357.797 856.552 357.108C857.095 356.404 857.777 355.861 858.598 355.48C859.419 355.099 860.387 354.908 861.502 354.908ZM861.194 356.932C860.549 356.932 860.013 357.079 859.588 357.372C859.163 357.651 858.818 358.039 858.554 358.538C858.29 359.037 858.099 359.623 857.982 360.298C857.879 360.973 857.828 361.706 857.828 362.498C857.828 363.246 857.879 363.957 857.982 364.632C858.085 365.307 858.268 365.901 858.532 366.414C858.811 366.927 859.185 367.338 859.654 367.646C860.138 367.954 860.761 368.108 861.524 368.108C862.155 368.108 862.683 367.969 863.108 367.69C863.548 367.411 863.9 367.03 864.164 366.546C864.428 366.062 864.611 365.49 864.714 364.83C864.831 364.155 864.89 363.429 864.89 362.652C864.89 361.904 864.839 361.185 864.736 360.496C864.633 359.807 864.443 359.198 864.164 358.67C863.9 358.142 863.526 357.724 863.042 357.416C862.573 357.093 861.957 356.932 861.194 356.932ZM876.065 361.618C875.845 361.369 875.618 361.156 875.383 360.98C875.163 360.804 874.863 360.716 874.481 360.716C874.261 360.716 874.012 360.753 873.733 360.826C873.469 360.885 873.22 361.046 872.985 361.31C872.751 361.559 872.553 361.933 872.391 362.432C872.245 362.931 872.171 363.605 872.171 364.456C872.171 365.321 872.245 366.011 872.391 366.524C872.553 367.023 872.751 367.411 872.985 367.69C873.235 367.969 873.499 368.152 873.777 368.24C874.056 368.313 874.327 368.35 874.591 368.35C874.797 368.35 875.009 368.335 875.229 368.306C875.449 368.262 875.662 368.218 875.867 368.174C876.073 368.115 876.249 368.064 876.395 368.02C876.557 367.976 876.674 367.939 876.747 367.91L877.363 369.494C877.319 369.509 877.217 369.553 877.055 369.626C876.909 369.699 876.703 369.773 876.439 369.846C876.175 369.919 875.86 369.985 875.493 370.044C875.127 370.117 874.716 370.154 874.261 370.154C873.411 370.154 872.685 370.029 872.083 369.78C871.482 369.516 870.983 369.149 870.587 368.68C870.206 368.211 869.92 367.646 869.729 366.986C869.553 366.326 869.465 365.593 869.465 364.786C869.465 363.818 869.59 362.96 869.839 362.212C870.103 361.464 870.463 360.841 870.917 360.342C871.372 359.829 871.907 359.44 872.523 359.176C873.139 358.912 873.799 358.78 874.503 358.78C875.193 358.78 875.772 358.912 876.241 359.176C876.725 359.44 877.136 359.807 877.473 360.276L876.065 361.618ZM877.939 359.044H879.919L880.359 356.47L882.427 356.008V359.044H885.133L884.825 360.826H882.427V367.338C882.427 367.719 882.529 367.969 882.735 368.086C882.94 368.189 883.167 368.24 883.417 368.24C883.622 368.24 883.827 368.225 884.033 368.196C884.238 368.167 884.421 368.13 884.583 368.086C884.773 368.042 884.957 367.991 885.133 367.932L885.551 369.582L885.353 369.648C885.221 369.707 885.023 369.773 884.759 369.846C884.509 369.905 884.209 369.956 883.857 370C883.519 370.059 883.145 370.088 882.735 370.088C882.324 370.088 881.943 370.044 881.591 369.956C881.253 369.868 880.96 369.729 880.711 369.538C880.461 369.333 880.263 369.076 880.117 368.768C879.985 368.46 879.919 368.079 879.919 367.624V360.826H877.939V359.044ZM893.61 359.044H896.118V364.698C896.118 365.578 896.169 366.319 896.272 366.92C896.389 367.507 896.514 367.983 896.646 368.35C896.807 368.79 896.983 369.135 897.174 369.384L895.216 370.176C895.04 370.015 894.879 369.809 894.732 369.56C894.615 369.355 894.49 369.105 894.358 368.812C894.241 368.504 894.16 368.145 894.116 367.734C893.72 368.599 893.163 369.215 892.444 369.582C891.725 369.949 890.977 370.132 890.2 370.132C889.041 370.132 888.213 369.795 887.714 369.12C887.23 368.445 886.988 367.521 886.988 366.348V359.044H889.496V366.304C889.496 366.92 889.606 367.404 889.826 367.756C890.046 368.108 890.42 368.284 890.948 368.284C891.271 368.284 891.586 368.196 891.894 368.02C892.217 367.829 892.503 367.565 892.752 367.228C893.016 366.891 893.221 366.487 893.368 366.018C893.529 365.534 893.61 364.999 893.61 364.412V359.044ZM899.172 354.49L901.68 354.05V360.76C901.944 360.159 902.311 359.697 902.78 359.374C903.264 359.037 903.88 358.868 904.628 358.868C905.318 358.868 905.912 359 906.41 359.264C906.924 359.513 907.349 359.88 907.686 360.364C908.024 360.833 908.273 361.405 908.434 362.08C908.596 362.755 908.676 363.503 908.676 364.324C908.676 365.16 908.544 365.937 908.28 366.656C908.031 367.36 907.672 367.969 907.202 368.482C906.748 368.995 906.198 369.399 905.552 369.692C904.907 369.985 904.196 370.132 903.418 370.132C902.978 370.132 902.509 370.095 902.01 370.022C901.512 369.963 901.05 369.897 900.624 369.824C900.14 369.736 899.656 369.626 899.172 369.494V354.49ZM904.21 360.628C903.844 360.628 903.506 360.753 903.198 361.002C902.89 361.251 902.619 361.581 902.384 361.992C902.164 362.403 901.988 362.865 901.856 363.378C901.739 363.891 901.68 364.419 901.68 364.962V368.152C901.812 368.181 902.025 368.225 902.318 368.284C902.612 368.343 902.883 368.372 903.132 368.372C903.675 368.372 904.13 368.277 904.496 368.086C904.863 367.895 905.156 367.631 905.376 367.294C905.596 366.957 905.75 366.553 905.838 366.084C905.926 365.615 905.97 365.101 905.97 364.544C905.97 364.031 905.956 363.539 905.926 363.07C905.897 362.601 905.816 362.183 905.684 361.816C905.567 361.449 905.391 361.163 905.156 360.958C904.922 360.738 904.606 360.628 904.21 360.628ZM915.787 361.332C915.523 361.332 915.259 361.398 914.995 361.53C914.731 361.662 914.497 361.845 914.291 362.08C914.086 362.3 913.917 362.571 913.785 362.894C913.653 363.217 913.587 363.576 913.587 363.972V370H911.079V364.456C911.079 363.576 911.021 362.843 910.903 362.256C910.786 361.655 910.661 361.171 910.529 360.804C910.368 360.379 910.192 360.034 910.001 359.77L911.981 358.978C912.113 359.139 912.253 359.337 912.399 359.572C912.517 359.777 912.634 360.019 912.751 360.298C912.869 360.577 912.964 360.907 913.037 361.288C913.331 360.437 913.756 359.829 914.313 359.462C914.871 359.081 915.501 358.89 916.205 358.89C916.543 358.89 916.858 358.934 917.151 359.022C917.445 359.095 917.584 359.132 917.569 359.132L916.865 361.574C916.88 361.574 916.792 361.537 916.601 361.464C916.425 361.376 916.154 361.332 915.787 361.332ZM917.676 364.786C917.676 363.803 917.808 362.938 918.072 362.19C918.351 361.442 918.725 360.819 919.194 360.32C919.678 359.807 920.243 359.425 920.888 359.176C921.534 358.912 922.23 358.78 922.978 358.78C923.638 358.78 924.196 358.861 924.65 359.022C925.12 359.183 925.501 359.403 925.794 359.682C926.088 359.961 926.3 360.291 926.432 360.672C926.579 361.053 926.652 361.464 926.652 361.904C926.652 362.432 926.506 362.938 926.212 363.422C925.919 363.891 925.494 364.309 924.936 364.676C924.394 365.028 923.734 365.314 922.956 365.534C922.179 365.739 921.306 365.849 920.338 365.864C920.382 366.201 920.448 366.524 920.536 366.832C920.639 367.125 920.778 367.389 920.954 367.624C921.145 367.844 921.387 368.02 921.68 368.152C921.974 368.284 922.34 368.35 922.78 368.35C923.103 368.35 923.448 368.313 923.814 368.24C924.181 368.167 924.518 368.079 924.826 367.976C925.193 367.859 925.552 367.727 925.904 367.58L926.564 369.142C926.183 369.333 925.772 369.501 925.332 369.648C924.951 369.78 924.511 369.897 924.012 370C923.514 370.103 922.986 370.154 922.428 370.154C921.578 370.154 920.852 370.029 920.25 369.78C919.649 369.516 919.158 369.149 918.776 368.68C918.395 368.211 918.116 367.646 917.94 366.986C917.764 366.326 917.676 365.593 917.676 364.786ZM922.78 360.496C922.296 360.496 921.893 360.613 921.57 360.848C921.262 361.068 921.013 361.361 920.822 361.728C920.632 362.08 920.492 362.483 920.404 362.938C920.331 363.378 920.287 363.825 920.272 364.28C920.976 364.251 921.57 364.163 922.054 364.016C922.553 363.855 922.956 363.664 923.264 363.444C923.572 363.209 923.792 362.96 923.924 362.696C924.071 362.432 924.144 362.168 924.144 361.904C924.144 361.479 924.02 361.141 923.77 360.892C923.521 360.628 923.191 360.496 922.78 360.496Z" fill="#272727"/>
<path d="M973.34 355.106H975.958V370.022H973.78L968.764 362.19C968.485 361.765 968.177 361.288 967.84 360.76C967.517 360.217 967.209 359.719 966.916 359.264C966.96 359.733 966.997 360.225 967.026 360.738C967.07 361.251 967.092 361.743 967.092 362.212L967.158 370H964.54V355.062H966.586L971.756 362.806C972.049 363.231 972.343 363.686 972.636 364.17C972.944 364.639 973.245 365.094 973.538 365.534C973.509 365.065 973.479 364.595 973.45 364.126C973.421 363.642 973.406 363.231 973.406 362.894L973.34 355.106ZM983.138 358.78C984.824 358.78 986.049 359.279 986.812 360.276C987.574 361.273 987.956 362.645 987.956 364.39C987.956 365.211 987.853 365.981 987.648 366.7C987.442 367.404 987.127 368.02 986.702 368.548C986.291 369.061 985.77 369.472 985.14 369.78C984.509 370.073 983.776 370.22 982.94 370.22C982.104 370.22 981.378 370.095 980.762 369.846C980.16 369.582 979.662 369.208 979.266 368.724C978.87 368.24 978.576 367.653 978.386 366.964C978.21 366.275 978.122 365.497 978.122 364.632C978.122 363.796 978.224 363.026 978.43 362.322C978.635 361.603 978.943 360.987 979.354 360.474C979.779 359.946 980.307 359.535 980.938 359.242C981.568 358.934 982.302 358.78 983.138 358.78ZM982.918 360.628C982.492 360.628 982.14 360.723 981.862 360.914C981.598 361.105 981.385 361.376 981.224 361.728C981.077 362.065 980.974 362.469 980.916 362.938C980.857 363.393 980.828 363.884 980.828 364.412C980.828 364.955 980.857 365.468 980.916 365.952C980.989 366.436 981.114 366.861 981.29 367.228C981.466 367.58 981.7 367.859 981.994 368.064C982.302 368.269 982.69 368.372 983.16 368.372C983.585 368.372 983.93 368.277 984.194 368.086C984.472 367.895 984.685 367.631 984.832 367.294C984.993 366.942 985.103 366.539 985.162 366.084C985.22 365.629 985.25 365.138 985.25 364.61C985.25 364.067 985.213 363.554 985.14 363.07C985.081 362.586 984.964 362.161 984.788 361.794C984.612 361.427 984.37 361.141 984.062 360.936C983.768 360.731 983.387 360.628 982.918 360.628ZM999.035 359.044L999.079 359.22C999.093 359.352 999.115 359.528 999.145 359.748C999.174 359.953 999.196 360.195 999.211 360.474C999.24 360.738 999.255 361.009 999.255 361.288C999.255 362.916 999.13 364.295 998.881 365.424C998.646 366.539 998.279 367.448 997.781 368.152C997.297 368.841 996.673 369.34 995.911 369.648C995.163 369.956 994.275 370.11 993.249 370.11C992.09 370.11 991.261 369.78 990.763 369.12C990.279 368.445 990.037 367.521 990.037 366.348V359.044H992.545V366.282C992.545 366.898 992.655 367.397 992.875 367.778C993.095 368.159 993.469 368.35 993.997 368.35C994.525 368.35 994.965 368.152 995.317 367.756C995.669 367.36 995.947 366.847 996.153 366.216C996.358 365.571 996.505 364.845 996.593 364.038C996.681 363.217 996.725 362.388 996.725 361.552C996.725 361.244 996.71 360.943 996.681 360.65C996.666 360.342 996.637 360.071 996.593 359.836C996.563 359.601 996.541 359.411 996.527 359.264L996.483 359.044H999.035ZM1003.99 370.088C1003.22 370.088 1002.62 369.861 1002.21 369.406C1001.8 368.937 1001.6 368.335 1001.6 367.602V359.044H1004.1V367.382C1004.1 367.719 1004.16 367.947 1004.26 368.064C1004.36 368.181 1004.51 368.24 1004.72 368.24C1004.78 368.24 1004.84 368.24 1004.9 368.24C1004.97 368.24 1005.04 368.233 1005.09 368.218C1005.15 368.218 1005.22 368.211 1005.29 368.196L1005.56 369.78C1005.45 369.839 1005.32 369.89 1005.16 369.934C1005.03 369.978 1004.86 370.015 1004.65 370.044C1004.46 370.073 1004.24 370.088 1003.99 370.088ZM1002.89 354.16C1003.36 354.16 1003.72 354.299 1003.97 354.578C1004.22 354.857 1004.35 355.216 1004.35 355.656C1004.35 356.096 1004.21 356.463 1003.95 356.756C1003.7 357.049 1003.33 357.196 1002.83 357.196C1002.36 357.196 1001.99 357.057 1001.73 356.778C1001.48 356.485 1001.35 356.133 1001.35 355.722C1001.35 355.267 1001.48 354.893 1001.73 354.6C1001.99 354.307 1002.38 354.16 1002.89 354.16ZM1006.65 364.786C1006.65 363.803 1006.78 362.938 1007.05 362.19C1007.33 361.442 1007.7 360.819 1008.17 360.32C1008.65 359.807 1009.22 359.425 1009.86 359.176C1010.51 358.912 1011.21 358.78 1011.95 358.78C1012.61 358.78 1013.17 358.861 1013.63 359.022C1014.1 359.183 1014.48 359.403 1014.77 359.682C1015.06 359.961 1015.28 360.291 1015.41 360.672C1015.56 361.053 1015.63 361.464 1015.63 361.904C1015.63 362.432 1015.48 362.938 1015.19 363.422C1014.9 363.891 1014.47 364.309 1013.91 364.676C1013.37 365.028 1012.71 365.314 1011.93 365.534C1011.16 365.739 1010.28 365.849 1009.31 365.864C1009.36 366.201 1009.42 366.524 1009.51 366.832C1009.62 367.125 1009.75 367.389 1009.93 367.624C1010.12 367.844 1010.36 368.02 1010.66 368.152C1010.95 368.284 1011.32 368.35 1011.76 368.35C1012.08 368.35 1012.42 368.313 1012.79 368.24C1013.16 368.167 1013.49 368.079 1013.8 367.976C1014.17 367.859 1014.53 367.727 1014.88 367.58L1015.54 369.142C1015.16 369.333 1014.75 369.501 1014.31 369.648C1013.93 369.78 1013.49 369.897 1012.99 370C1012.49 370.103 1011.96 370.154 1011.4 370.154C1010.55 370.154 1009.83 370.029 1009.23 369.78C1008.63 369.516 1008.13 369.149 1007.75 368.68C1007.37 368.211 1007.09 367.646 1006.92 366.986C1006.74 366.326 1006.65 365.593 1006.65 364.786ZM1011.76 360.496C1011.27 360.496 1010.87 360.613 1010.55 360.848C1010.24 361.068 1009.99 361.361 1009.8 361.728C1009.61 362.08 1009.47 362.483 1009.38 362.938C1009.31 363.378 1009.26 363.825 1009.25 364.28C1009.95 364.251 1010.55 364.163 1011.03 364.016C1011.53 363.855 1011.93 363.664 1012.24 363.444C1012.55 363.209 1012.77 362.96 1012.9 362.696C1013.05 362.432 1013.12 362.168 1013.12 361.904C1013.12 361.479 1013 361.141 1012.75 360.892C1012.5 360.628 1012.17 360.496 1011.76 360.496ZM1030.27 370V362.828C1030.27 362.212 1030.18 361.728 1029.99 361.376C1029.8 361.009 1029.47 360.826 1029 360.826C1028.72 360.826 1028.43 360.907 1028.14 361.068C1027.86 361.215 1027.6 361.435 1027.37 361.728C1027.13 362.021 1026.94 362.373 1026.8 362.784C1026.65 363.195 1026.58 363.649 1026.58 364.148V370H1024.09V362.828C1024.09 362.212 1024 361.728 1023.81 361.376C1023.61 361.009 1023.28 360.826 1022.82 360.826C1022.52 360.826 1022.23 360.914 1021.94 361.09C1021.66 361.251 1021.4 361.493 1021.17 361.816C1020.95 362.139 1020.76 362.535 1020.62 363.004C1020.48 363.459 1020.42 363.972 1020.42 364.544V370H1017.91V364.456C1017.91 363.576 1017.85 362.843 1017.73 362.256C1017.62 361.655 1017.49 361.171 1017.36 360.804C1017.2 360.379 1017.02 360.034 1016.83 359.77L1018.81 358.978C1018.96 359.139 1019.1 359.337 1019.25 359.572C1019.37 359.777 1019.49 360.034 1019.6 360.342C1019.72 360.635 1019.82 360.973 1019.89 361.354C1020.26 360.474 1020.77 359.843 1021.43 359.462C1022.1 359.066 1022.82 358.868 1023.56 358.868C1024.31 358.868 1024.89 359.059 1025.3 359.44C1025.73 359.821 1026.04 360.313 1026.25 360.914C1026.64 360.181 1027.15 359.66 1027.77 359.352C1028.4 359.029 1029.06 358.868 1029.75 358.868C1030.32 358.868 1030.79 358.963 1031.18 359.154C1031.57 359.33 1031.88 359.587 1032.1 359.924C1032.33 360.247 1032.5 360.643 1032.61 361.112C1032.71 361.567 1032.76 362.08 1032.76 362.652V370H1030.27ZM1035.5 354.49L1038.01 354.05V360.76C1038.27 360.159 1038.64 359.697 1039.11 359.374C1039.59 359.037 1040.21 358.868 1040.96 358.868C1041.65 358.868 1042.24 359 1042.74 359.264C1043.25 359.513 1043.68 359.88 1044.01 360.364C1044.35 360.833 1044.6 361.405 1044.76 362.08C1044.92 362.755 1045 363.503 1045 364.324C1045 365.16 1044.87 365.937 1044.61 366.656C1044.36 367.36 1044 367.969 1043.53 368.482C1043.08 368.995 1042.53 369.399 1041.88 369.692C1041.23 369.985 1040.52 370.132 1039.75 370.132C1039.31 370.132 1038.84 370.095 1038.34 370.022C1037.84 369.963 1037.38 369.897 1036.95 369.824C1036.47 369.736 1035.98 369.626 1035.5 369.494V354.49ZM1040.54 360.628C1040.17 360.628 1039.83 360.753 1039.53 361.002C1039.22 361.251 1038.95 361.581 1038.71 361.992C1038.49 362.403 1038.32 362.865 1038.18 363.378C1038.07 363.891 1038.01 364.419 1038.01 364.962V368.152C1038.14 368.181 1038.35 368.225 1038.65 368.284C1038.94 368.343 1039.21 368.372 1039.46 368.372C1040 368.372 1040.46 368.277 1040.82 368.086C1041.19 367.895 1041.48 367.631 1041.7 367.294C1041.92 366.957 1042.08 366.553 1042.17 366.084C1042.25 365.615 1042.3 365.101 1042.3 364.544C1042.3 364.031 1042.28 363.539 1042.25 363.07C1042.22 362.601 1042.14 362.183 1042.01 361.816C1041.89 361.449 1041.72 361.163 1041.48 360.958C1041.25 360.738 1040.93 360.628 1040.54 360.628ZM1052.12 361.332C1051.85 361.332 1051.59 361.398 1051.32 361.53C1051.06 361.662 1050.82 361.845 1050.62 362.08C1050.41 362.3 1050.25 362.571 1050.11 362.894C1049.98 363.217 1049.92 363.576 1049.92 363.972V370H1047.41V364.456C1047.41 363.576 1047.35 362.843 1047.23 362.256C1047.11 361.655 1046.99 361.171 1046.86 360.804C1046.7 360.379 1046.52 360.034 1046.33 359.77L1048.31 358.978C1048.44 359.139 1048.58 359.337 1048.73 359.572C1048.84 359.777 1048.96 360.019 1049.08 360.298C1049.2 360.577 1049.29 360.907 1049.37 361.288C1049.66 360.437 1050.08 359.829 1050.64 359.462C1051.2 359.081 1051.83 358.89 1052.53 358.89C1052.87 358.89 1053.19 358.934 1053.48 359.022C1053.77 359.095 1053.91 359.132 1053.9 359.132L1053.19 361.574C1053.21 361.574 1053.12 361.537 1052.93 361.464C1052.75 361.376 1052.48 361.332 1052.12 361.332ZM1054 364.786C1054 363.803 1054.14 362.938 1054.4 362.19C1054.68 361.442 1055.05 360.819 1055.52 360.32C1056.01 359.807 1056.57 359.425 1057.22 359.176C1057.86 358.912 1058.56 358.78 1059.31 358.78C1059.97 358.78 1060.52 358.861 1060.98 359.022C1061.45 359.183 1061.83 359.403 1062.12 359.682C1062.42 359.961 1062.63 360.291 1062.76 360.672C1062.91 361.053 1062.98 361.464 1062.98 361.904C1062.98 362.432 1062.83 362.938 1062.54 363.422C1062.25 363.891 1061.82 364.309 1061.26 364.676C1060.72 365.028 1060.06 365.314 1059.28 365.534C1058.51 365.739 1057.63 365.849 1056.67 365.864C1056.71 366.201 1056.78 366.524 1056.86 366.832C1056.97 367.125 1057.11 367.389 1057.28 367.624C1057.47 367.844 1057.72 368.02 1058.01 368.152C1058.3 368.284 1058.67 368.35 1059.11 368.35C1059.43 368.35 1059.78 368.313 1060.14 368.24C1060.51 368.167 1060.85 368.079 1061.15 367.976C1061.52 367.859 1061.88 367.727 1062.23 367.58L1062.89 369.142C1062.51 369.333 1062.1 369.501 1061.66 369.648C1061.28 369.78 1060.84 369.897 1060.34 370C1059.84 370.103 1059.31 370.154 1058.76 370.154C1057.91 370.154 1057.18 370.029 1056.58 369.78C1055.98 369.516 1055.49 369.149 1055.1 368.68C1054.72 368.211 1054.44 367.646 1054.27 366.986C1054.09 366.326 1054 365.593 1054 364.786ZM1059.11 360.496C1058.62 360.496 1058.22 360.613 1057.9 360.848C1057.59 361.068 1057.34 361.361 1057.15 361.728C1056.96 362.08 1056.82 362.483 1056.73 362.938C1056.66 363.378 1056.62 363.825 1056.6 364.28C1057.3 364.251 1057.9 364.163 1058.38 364.016C1058.88 363.855 1059.28 363.664 1059.59 363.444C1059.9 363.209 1060.12 362.96 1060.25 362.696C1060.4 362.432 1060.47 362.168 1060.47 361.904C1060.47 361.479 1060.35 361.141 1060.1 360.892C1059.85 360.628 1059.52 360.496 1059.11 360.496Z" fill="#272727"/>
<path d="M1100.54 355.106C1100.64 355.106 1100.86 355.106 1101.2 355.106C1101.54 355.091 1101.92 355.084 1102.34 355.084C1102.77 355.084 1103.21 355.084 1103.66 355.084C1104.12 355.069 1104.51 355.062 1104.85 355.062C1107.35 355.062 1109.19 355.685 1110.4 356.932C1111.6 358.164 1112.2 360.005 1112.2 362.454C1112.2 364.903 1111.58 366.781 1110.35 368.086C1109.12 369.391 1107.19 370.044 1104.57 370.044C1104.11 370.044 1103.66 370.037 1103.22 370.022C1102.8 370.022 1102.4 370.022 1102.04 370.022C1101.68 370.022 1101.38 370.015 1101.11 370C1100.85 370 1100.66 370 1100.54 370V355.106ZM1104.54 357.02C1104.21 357.02 1103.92 357.027 1103.69 357.042C1103.47 357.042 1103.29 357.042 1103.16 357.042V368.064C1103.32 368.079 1103.52 368.086 1103.77 368.086C1104.04 368.086 1104.41 368.086 1104.9 368.086C1106.44 368.086 1107.57 367.639 1108.28 366.744C1109 365.835 1109.36 364.485 1109.36 362.696C1109.36 361.845 1109.27 361.075 1109.1 360.386C1108.94 359.682 1108.66 359.081 1108.26 358.582C1107.88 358.083 1107.38 357.702 1106.77 357.438C1106.16 357.159 1105.42 357.02 1104.54 357.02ZM1116.88 370.088C1116.1 370.088 1115.51 369.861 1115.09 369.406C1114.68 368.937 1114.48 368.335 1114.48 367.602V359.044H1116.99V367.382C1116.99 367.719 1117.04 367.947 1117.14 368.064C1117.24 368.181 1117.4 368.24 1117.6 368.24C1117.66 368.24 1117.72 368.24 1117.78 368.24C1117.85 368.24 1117.92 368.233 1117.98 368.218C1118.04 368.218 1118.1 368.211 1118.17 368.196L1118.44 369.78C1118.34 369.839 1118.2 369.89 1118.04 369.934C1117.91 369.978 1117.74 370.015 1117.54 370.044C1117.35 370.073 1117.13 370.088 1116.88 370.088ZM1115.78 354.16C1116.25 354.16 1116.61 354.299 1116.85 354.578C1117.1 354.857 1117.23 355.216 1117.23 355.656C1117.23 356.096 1117.1 356.463 1116.83 356.756C1116.58 357.049 1116.21 357.196 1115.71 357.196C1115.24 357.196 1114.87 357.057 1114.61 356.778C1114.36 356.485 1114.24 356.133 1114.24 355.722C1114.24 355.267 1114.36 354.893 1114.61 354.6C1114.87 354.307 1115.26 354.16 1115.78 354.16ZM1126.14 361.618C1125.92 361.369 1125.69 361.156 1125.45 360.98C1125.23 360.804 1124.93 360.716 1124.55 360.716C1124.33 360.716 1124.08 360.753 1123.8 360.826C1123.54 360.885 1123.29 361.046 1123.06 361.31C1122.82 361.559 1122.62 361.933 1122.46 362.432C1122.31 362.931 1122.24 363.605 1122.24 364.456C1122.24 365.321 1122.31 366.011 1122.46 366.524C1122.62 367.023 1122.82 367.411 1123.06 367.69C1123.3 367.969 1123.57 368.152 1123.85 368.24C1124.13 368.313 1124.4 368.35 1124.66 368.35C1124.87 368.35 1125.08 368.335 1125.3 368.306C1125.52 368.262 1125.73 368.218 1125.94 368.174C1126.14 368.115 1126.32 368.064 1126.47 368.02C1126.63 367.976 1126.74 367.939 1126.82 367.91L1127.43 369.494C1127.39 369.509 1127.29 369.553 1127.13 369.626C1126.98 369.699 1126.77 369.773 1126.51 369.846C1126.25 369.919 1125.93 369.985 1125.56 370.044C1125.2 370.117 1124.79 370.154 1124.33 370.154C1123.48 370.154 1122.75 370.029 1122.15 369.78C1121.55 369.516 1121.05 369.149 1120.66 368.68C1120.28 368.211 1119.99 367.646 1119.8 366.986C1119.62 366.326 1119.54 365.593 1119.54 364.786C1119.54 363.818 1119.66 362.96 1119.91 362.212C1120.17 361.464 1120.53 360.841 1120.99 360.342C1121.44 359.829 1121.98 359.44 1122.59 359.176C1123.21 358.912 1123.87 358.78 1124.57 358.78C1125.26 358.78 1125.84 358.912 1126.31 359.176C1126.8 359.44 1127.21 359.807 1127.54 360.276L1126.14 361.618ZM1131.53 370.088C1130.75 370.088 1130.16 369.861 1129.75 369.406C1129.34 368.937 1129.13 368.335 1129.13 367.602V359.044H1131.64V367.382C1131.64 367.719 1131.69 367.947 1131.79 368.064C1131.9 368.181 1132.05 368.24 1132.26 368.24C1132.31 368.24 1132.37 368.24 1132.43 368.24C1132.5 368.24 1132.57 368.233 1132.63 368.218C1132.69 368.218 1132.75 368.211 1132.83 368.196L1133.09 369.78C1132.99 369.839 1132.86 369.89 1132.7 369.934C1132.56 369.978 1132.39 370.015 1132.19 370.044C1132 370.073 1131.78 370.088 1131.53 370.088ZM1130.43 354.16C1130.9 354.16 1131.26 354.299 1131.51 354.578C1131.76 354.857 1131.88 355.216 1131.88 355.656C1131.88 356.096 1131.75 356.463 1131.49 356.756C1131.24 357.049 1130.86 357.196 1130.36 357.196C1129.89 357.196 1129.53 357.057 1129.26 356.778C1129.01 356.485 1128.89 356.133 1128.89 355.722C1128.89 355.267 1129.01 354.893 1129.26 354.6C1129.53 354.307 1129.92 354.16 1130.43 354.16ZM1134.19 364.786C1134.19 363.803 1134.32 362.938 1134.58 362.19C1134.86 361.442 1135.24 360.819 1135.71 360.32C1136.19 359.807 1136.75 359.425 1137.4 359.176C1138.05 358.912 1138.74 358.78 1139.49 358.78C1140.15 358.78 1140.71 358.861 1141.16 359.022C1141.63 359.183 1142.01 359.403 1142.31 359.682C1142.6 359.961 1142.81 360.291 1142.94 360.672C1143.09 361.053 1143.16 361.464 1143.16 361.904C1143.16 362.432 1143.02 362.938 1142.72 363.422C1142.43 363.891 1142.01 364.309 1141.45 364.676C1140.91 365.028 1140.25 365.314 1139.47 365.534C1138.69 365.739 1137.82 365.849 1136.85 365.864C1136.89 366.201 1136.96 366.524 1137.05 366.832C1137.15 367.125 1137.29 367.389 1137.47 367.624C1137.66 367.844 1137.9 368.02 1138.19 368.152C1138.49 368.284 1138.85 368.35 1139.29 368.35C1139.61 368.35 1139.96 368.313 1140.33 368.24C1140.69 368.167 1141.03 368.079 1141.34 367.976C1141.7 367.859 1142.06 367.727 1142.42 367.58L1143.08 369.142C1142.69 369.333 1142.28 369.501 1141.84 369.648C1141.46 369.78 1141.02 369.897 1140.52 370C1140.03 370.103 1139.5 370.154 1138.94 370.154C1138.09 370.154 1137.36 370.029 1136.76 369.78C1136.16 369.516 1135.67 369.149 1135.29 368.68C1134.91 368.211 1134.63 367.646 1134.45 366.986C1134.28 366.326 1134.19 365.593 1134.19 364.786ZM1139.29 360.496C1138.81 360.496 1138.4 360.613 1138.08 360.848C1137.77 361.068 1137.52 361.361 1137.33 361.728C1137.14 362.08 1137 362.483 1136.92 362.938C1136.84 363.378 1136.8 363.825 1136.78 364.28C1137.49 364.251 1138.08 364.163 1138.57 364.016C1139.06 363.855 1139.47 363.664 1139.78 363.444C1140.08 363.209 1140.3 362.96 1140.44 362.696C1140.58 362.432 1140.66 362.168 1140.66 361.904C1140.66 361.479 1140.53 361.141 1140.28 360.892C1140.03 360.628 1139.7 360.496 1139.29 360.496ZM1157.81 370V362.828C1157.81 362.212 1157.71 361.728 1157.52 361.376C1157.33 361.009 1157 360.826 1156.53 360.826C1156.25 360.826 1155.97 360.907 1155.67 361.068C1155.4 361.215 1155.14 361.435 1154.9 361.728C1154.67 362.021 1154.48 362.373 1154.33 362.784C1154.19 363.195 1154.11 363.649 1154.11 364.148V370H1151.63V362.828C1151.63 362.212 1151.53 361.728 1151.34 361.376C1151.15 361.009 1150.82 360.826 1150.35 360.826C1150.06 360.826 1149.76 360.914 1149.47 361.09C1149.19 361.251 1148.94 361.493 1148.7 361.816C1148.48 362.139 1148.3 362.535 1148.15 363.004C1148.02 363.459 1147.95 363.972 1147.95 364.544V370H1145.44V364.456C1145.44 363.576 1145.39 362.843 1145.27 362.256C1145.15 361.655 1145.03 361.171 1144.89 360.804C1144.73 360.379 1144.56 360.034 1144.37 359.77L1146.35 358.978C1146.49 359.139 1146.64 359.337 1146.79 359.572C1146.9 359.777 1147.02 360.034 1147.14 360.342C1147.26 360.635 1147.35 360.973 1147.42 361.354C1147.79 360.474 1148.3 359.843 1148.96 359.462C1149.64 359.066 1150.35 358.868 1151.1 358.868C1151.85 358.868 1152.43 359.059 1152.84 359.44C1153.26 359.821 1153.58 360.313 1153.78 360.914C1154.18 360.181 1154.68 359.66 1155.3 359.352C1155.93 359.029 1156.59 358.868 1157.28 358.868C1157.85 358.868 1158.33 358.963 1158.71 359.154C1159.11 359.33 1159.41 359.587 1159.63 359.924C1159.87 360.247 1160.04 360.643 1160.14 361.112C1160.24 361.567 1160.29 362.08 1160.29 362.652V370H1157.81ZM1163.04 354.49L1165.54 354.05V360.76C1165.81 360.159 1166.17 359.697 1166.64 359.374C1167.13 359.037 1167.74 358.868 1168.49 358.868C1169.18 358.868 1169.77 359 1170.27 359.264C1170.79 359.513 1171.21 359.88 1171.55 360.364C1171.89 360.833 1172.14 361.405 1172.3 362.08C1172.46 362.755 1172.54 363.503 1172.54 364.324C1172.54 365.16 1172.41 365.937 1172.14 366.656C1171.89 367.36 1171.53 367.969 1171.07 368.482C1170.61 368.995 1170.06 369.399 1169.42 369.692C1168.77 369.985 1168.06 370.132 1167.28 370.132C1166.84 370.132 1166.37 370.095 1165.87 370.022C1165.37 369.963 1164.91 369.897 1164.49 369.824C1164 369.736 1163.52 369.626 1163.04 369.494V354.49ZM1168.07 360.628C1167.71 360.628 1167.37 360.753 1167.06 361.002C1166.75 361.251 1166.48 361.581 1166.25 361.992C1166.03 362.403 1165.85 362.865 1165.72 363.378C1165.6 363.891 1165.54 364.419 1165.54 364.962V368.152C1165.68 368.181 1165.89 368.225 1166.18 368.284C1166.47 368.343 1166.75 368.372 1167 368.372C1167.54 368.372 1167.99 368.277 1168.36 368.086C1168.73 367.895 1169.02 367.631 1169.24 367.294C1169.46 366.957 1169.61 366.553 1169.7 366.084C1169.79 365.615 1169.83 365.101 1169.83 364.544C1169.83 364.031 1169.82 363.539 1169.79 363.07C1169.76 362.601 1169.68 362.183 1169.55 361.816C1169.43 361.449 1169.25 361.163 1169.02 360.958C1168.78 360.738 1168.47 360.628 1168.07 360.628ZM1179.65 361.332C1179.39 361.332 1179.12 361.398 1178.86 361.53C1178.59 361.662 1178.36 361.845 1178.15 362.08C1177.95 362.3 1177.78 362.571 1177.65 362.894C1177.52 363.217 1177.45 363.576 1177.45 363.972V370H1174.94V364.456C1174.94 363.576 1174.88 362.843 1174.77 362.256C1174.65 361.655 1174.52 361.171 1174.39 360.804C1174.23 360.379 1174.06 360.034 1173.86 359.77L1175.84 358.978C1175.98 359.139 1176.12 359.337 1176.26 359.572C1176.38 359.777 1176.5 360.019 1176.61 360.298C1176.73 360.577 1176.83 360.907 1176.9 361.288C1177.19 360.437 1177.62 359.829 1178.18 359.462C1178.73 359.081 1179.36 358.89 1180.07 358.89C1180.41 358.89 1180.72 358.934 1181.01 359.022C1181.31 359.095 1181.45 359.132 1181.43 359.132L1180.73 361.574C1180.74 361.574 1180.66 361.537 1180.46 361.464C1180.29 361.376 1180.02 361.332 1179.65 361.332ZM1181.54 364.786C1181.54 363.803 1181.67 362.938 1181.94 362.19C1182.21 361.442 1182.59 360.819 1183.06 360.32C1183.54 359.807 1184.11 359.425 1184.75 359.176C1185.4 358.912 1186.09 358.78 1186.84 358.78C1187.5 358.78 1188.06 358.861 1188.51 359.022C1188.98 359.183 1189.36 359.403 1189.66 359.682C1189.95 359.961 1190.16 360.291 1190.3 360.672C1190.44 361.053 1190.52 361.464 1190.52 361.904C1190.52 362.432 1190.37 362.938 1190.08 363.422C1189.78 363.891 1189.36 364.309 1188.8 364.676C1188.26 365.028 1187.6 365.314 1186.82 365.534C1186.04 365.739 1185.17 365.849 1184.2 365.864C1184.25 366.201 1184.31 366.524 1184.4 366.832C1184.5 367.125 1184.64 367.389 1184.82 367.624C1185.01 367.844 1185.25 368.02 1185.54 368.152C1185.84 368.284 1186.2 368.35 1186.64 368.35C1186.97 368.35 1187.31 368.313 1187.68 368.24C1188.04 368.167 1188.38 368.079 1188.69 367.976C1189.06 367.859 1189.42 367.727 1189.77 367.58L1190.43 369.142C1190.05 369.333 1189.64 369.501 1189.2 369.648C1188.81 369.78 1188.37 369.897 1187.88 370C1187.38 370.103 1186.85 370.154 1186.29 370.154C1185.44 370.154 1184.71 370.029 1184.11 369.78C1183.51 369.516 1183.02 369.149 1182.64 368.68C1182.26 368.211 1181.98 367.646 1181.8 366.986C1181.63 366.326 1181.54 365.593 1181.54 364.786ZM1186.64 360.496C1186.16 360.496 1185.76 360.613 1185.43 360.848C1185.13 361.068 1184.88 361.361 1184.69 361.728C1184.49 362.08 1184.36 362.483 1184.27 362.938C1184.19 363.378 1184.15 363.825 1184.14 364.28C1184.84 364.251 1185.43 364.163 1185.92 364.016C1186.42 363.855 1186.82 363.664 1187.13 363.444C1187.44 363.209 1187.66 362.96 1187.79 362.696C1187.93 362.432 1188.01 362.168 1188.01 361.904C1188.01 361.479 1187.88 361.141 1187.63 360.892C1187.38 360.628 1187.05 360.496 1186.64 360.496Z" fill="#272727"/>
<path d="M25.1394 0.999939C25.1394 0.999939 90.5375 182 121.757 182C155.284 182 187.926 229.5 219.876 229.5C235.116 229.5 247.456 236.825 259.495 244.913C275.682 254.878 291.726 266 307.483 266C336.244 266 363.558 199 391.586 199C407.459 199 419.773 205.957 431.928 213.227C446.484 221.177 460.968 229.5 475.688 229.5C502.124 229.5 529.445 175 555.785 175C570.779 175 585.647 149.041 600.552 123.709C613.533 99.5699 626.603 75.9999 643.392 75.9999C681.932 75.9999 723.341 149 763.038 149C791.651 149 812.688 162.945 834.879 174.764C852.69 183.457 870.731 191 889.191 191C929.005 191 1010.84 128.5 1010.84 128.5L1143 22L1143 323H25.1392L25.1394 0.999939Z" fill="#D0E9F2"/>
<path d="M25.1394 0.999939C25.1394 0.999939 90.5375 182 121.757 182M25.1394 0.999939C25.1394 0.999939 84.221 182 121.757 182M25.1394 0.999939L25.1392 323H1143L1143 22L1010.84 128.5C1010.84 128.5 929.005 191 889.191 191M121.757 182C155.284 182 187.926 229.5 219.876 229.5M219.876 229.5C249.453 229.5 278.938 266 307.483 266M219.876 229.5C253.893 229.5 273.466 266 307.483 266M307.483 266C336.244 266 363.558 199 391.586 199M391.586 199C420.198 199 447.509 229.5 475.688 229.5M391.586 199C424.821 199 442.453 229.5 475.688 229.5M475.688 229.5C502.124 229.5 529.445 175 555.785 175M555.785 175C585.065 175 613.871 75.9999 643.392 75.9999M555.785 175C590.193 175 608.984 75.9999 643.392 75.9999M643.392 75.9999C681.931 75.9999 723.341 149 763.038 149M763.038 149C804.406 149 845.631 191 889.191 191M763.038 149C812.695 149 839.534 191 889.191 191" stroke="#81CFF5" stroke-width="5"/>
<rect x="589" y="8" width="111" height="35" fill="black"/>
<path d="M644.5 67L624.148 35.5H664.852L644.5 67Z" fill="black"/>
<path d="M614.924 25.816H621.326V28.258H614.924V25.816ZM631.666 22.912C631.314 22.7947 630.933 22.692 630.522 22.604C630.111 22.516 629.715 22.472 629.334 22.472C628.513 22.472 627.911 22.7873 627.53 23.418C627.163 24.0487 626.936 24.87 626.848 25.882C627.156 25.6327 627.523 25.4127 627.948 25.222C628.388 25.0167 628.887 24.914 629.444 24.914C630.045 24.914 630.603 25.0093 631.116 25.2C631.629 25.376 632.077 25.6547 632.458 26.036C632.839 26.4027 633.14 26.8793 633.36 27.466C633.58 28.038 633.69 28.7127 633.69 29.49C633.69 30.1647 633.565 30.7953 633.316 31.382C633.081 31.954 632.729 32.4527 632.26 32.878C631.805 33.2887 631.248 33.6113 630.588 33.846C629.943 34.0807 629.209 34.198 628.388 34.198C627.464 34.198 626.665 34.022 625.99 33.67C625.33 33.3033 624.78 32.8047 624.34 32.174C623.915 31.5287 623.592 30.766 623.372 29.886C623.167 29.006 623.064 28.0453 623.064 27.004C623.064 26.0653 623.196 25.1633 623.46 24.298C623.724 23.4327 624.12 22.67 624.648 22.01C625.176 21.35 625.836 20.822 626.628 20.426C627.435 20.03 628.373 19.832 629.444 19.832C629.987 19.832 630.551 19.8907 631.138 20.008C631.725 20.1253 632.209 20.2793 632.59 20.47L631.666 22.912ZM628.52 27.312C628.183 27.312 627.853 27.4 627.53 27.576C627.222 27.752 626.987 27.9207 626.826 28.082C626.885 29.4313 627.053 30.392 627.332 30.964C627.625 31.536 628.051 31.822 628.608 31.822C628.887 31.822 629.121 31.7633 629.312 31.646C629.503 31.514 629.657 31.3453 629.774 31.14C629.891 30.92 629.979 30.6707 630.038 30.392C630.097 30.1133 630.126 29.82 630.126 29.512C630.126 28.7347 629.979 28.1773 629.686 27.84C629.407 27.488 629.019 27.312 628.52 27.312ZM640.969 19.81C642.788 19.81 644.167 20.4333 645.105 21.68C646.044 22.912 646.513 24.6353 646.513 26.85C646.513 27.95 646.389 28.9547 646.139 29.864C645.89 30.7587 645.516 31.5287 645.017 32.174C644.533 32.8193 643.925 33.318 643.191 33.67C642.473 34.022 641.637 34.198 640.683 34.198C638.85 34.198 637.457 33.5967 636.503 32.394C635.565 31.1767 635.095 29.446 635.095 27.202C635.095 26.102 635.22 25.0973 635.469 24.188C635.733 23.2787 636.107 22.5013 636.591 21.856C637.09 21.2107 637.706 20.712 638.439 20.36C639.173 19.9933 640.016 19.81 640.969 19.81ZM640.683 22.252C640.009 22.252 639.532 22.648 639.253 23.44C638.975 24.2173 638.835 25.3907 638.835 26.96C638.835 27.6933 638.865 28.3607 638.923 28.962C638.982 29.5487 639.085 30.0547 639.231 30.48C639.393 30.8907 639.613 31.2133 639.891 31.448C640.17 31.668 640.522 31.778 640.947 31.778C641.607 31.778 642.069 31.3893 642.333 30.612C642.612 29.8347 642.751 28.6687 642.751 27.114C642.751 26.3807 642.722 25.7207 642.663 25.134C642.605 24.5327 642.495 24.0193 642.333 23.594C642.187 23.1687 641.981 22.8387 641.717 22.604C641.453 22.3693 641.109 22.252 640.683 22.252ZM654.032 19.81C655.85 19.81 657.229 20.4333 658.168 21.68C659.106 22.912 659.576 24.6353 659.576 26.85C659.576 27.95 659.451 28.9547 659.202 29.864C658.952 30.7587 658.578 31.5287 658.08 32.174C657.596 32.8193 656.987 33.318 656.254 33.67C655.535 34.022 654.699 34.198 653.746 34.198C651.912 34.198 650.519 33.5967 649.566 32.394C648.627 31.1767 648.158 29.446 648.158 27.202C648.158 26.102 648.282 25.0973 648.532 24.188C648.796 23.2787 649.17 22.5013 649.654 21.856C650.152 21.2107 650.768 20.712 651.502 20.36C652.235 19.9933 653.078 19.81 654.032 19.81ZM653.746 22.252C653.071 22.252 652.594 22.648 652.316 23.44C652.037 24.2173 651.898 25.3907 651.898 26.96C651.898 27.6933 651.927 28.3607 651.986 28.962C652.044 29.5487 652.147 30.0547 652.294 30.48C652.455 30.8907 652.675 31.2133 652.954 31.448C653.232 31.668 653.584 31.778 654.01 31.778C654.67 31.778 655.132 31.3893 655.396 30.612C655.674 29.8347 655.814 28.6687 655.814 27.114C655.814 26.3807 655.784 25.7207 655.726 25.134C655.667 24.5327 655.557 24.0193 655.396 23.594C655.249 23.1687 655.044 22.8387 654.78 22.604C654.516 22.3693 654.171 22.252 653.746 22.252ZM662.716 24.386C663.112 22.9927 663.816 21.8853 664.828 21.064C665.855 20.228 667.19 19.81 668.832 19.81C669.419 19.81 669.932 19.8613 670.372 19.964C670.812 20.0667 671.194 20.206 671.516 20.382C671.854 20.5433 672.147 20.734 672.396 20.954C672.66 21.1593 672.895 21.3793 673.1 21.614L671.142 23.594C670.732 23.0953 670.343 22.7653 669.976 22.604C669.61 22.4427 669.236 22.362 668.854 22.362C668.297 22.362 667.828 22.538 667.446 22.89C667.065 23.2273 666.772 23.726 666.566 24.386H671.098L670.702 26.96H666.236C666.236 26.9893 666.229 27.048 666.214 27.136C666.214 27.224 666.214 27.3047 666.214 27.378C666.214 27.5247 666.236 27.686 666.28 27.862H670.614L670.218 30.436H667.05C667.27 30.8027 667.549 31.0887 667.886 31.294C668.238 31.4847 668.656 31.58 669.14 31.58C669.404 31.58 669.632 31.5727 669.822 31.558C670.028 31.5287 670.218 31.492 670.394 31.448C670.57 31.404 670.746 31.36 670.922 31.316C671.098 31.2573 671.289 31.1987 671.494 31.14L672.286 33.604C671.832 33.7213 671.348 33.8387 670.834 33.956C670.321 34.0733 669.639 34.132 668.788 34.132C667.19 34.132 665.906 33.8167 664.938 33.186C663.97 32.5553 663.274 31.6387 662.848 30.436H661.264V27.862H662.364C662.364 27.818 662.357 27.752 662.342 27.664C662.342 27.576 662.342 27.488 662.342 27.4C662.342 27.3267 662.342 27.246 662.342 27.158C662.357 27.07 662.364 27.004 662.364 26.96H661.264V24.386H662.716Z" fill="white"/>
<circle cx="644.5" cy="76.5" r="7" fill="black" stroke="white"/>
<line x1="645.5" y1="76" x2="645.5" y2="324" stroke="black" stroke-dasharray="2 2"/>
</svg>
