<svg width="180" height="57" viewBox="0 0 180 57" fill="none" xmlns="http://www.w3.org/2000/svg">
<g clip-path="url(#clip0_115_98)">
<path d="M133.014 10.0741C133.447 10.0741 133.862 10.1174 134.259 10.2041C134.655 10.2784 135.014 10.3713 135.336 10.4828C135.671 10.5819 135.949 10.6872 136.172 10.7987C136.408 10.9102 136.569 10.9969 136.655 11.0588L135.745 12.6567L135.504 12.5266C135.342 12.4399 135.132 12.3408 134.872 12.2293C134.612 12.1179 134.327 12.0188 134.017 11.9321C133.707 11.8454 133.41 11.802 133.125 11.802C132.679 11.802 132.289 11.9073 131.955 12.1179C131.633 12.3284 131.472 12.6567 131.472 13.1026C131.472 13.66 131.651 14.1183 132.01 14.4775C132.37 14.8244 132.933 15.1464 133.701 15.4437C134.197 15.6419 134.636 15.8524 135.02 16.0754C135.417 16.286 135.751 16.5337 136.024 16.8186C136.296 17.1035 136.501 17.4317 136.637 17.8033C136.786 18.1749 136.86 18.6209 136.86 19.1411C136.86 19.6118 136.767 20.0763 136.581 20.5346C136.408 20.9929 136.141 21.4017 135.782 21.7609C135.435 22.1077 135.002 22.3926 134.482 22.6156C133.961 22.8261 133.361 22.9314 132.679 22.9314C132.196 22.9314 131.738 22.8819 131.304 22.7828C130.871 22.6837 130.475 22.5722 130.115 22.4483C129.768 22.3121 129.465 22.1758 129.205 22.0396C128.957 21.9033 128.771 21.798 128.647 21.7237L129.428 20.0144L129.762 20.2002C129.985 20.324 130.258 20.4603 130.58 20.6089C130.902 20.7576 131.242 20.8938 131.602 21.0177C131.961 21.1416 132.271 21.2035 132.531 21.2035C133.187 21.2035 133.676 21.0425 133.999 20.7204C134.321 20.3984 134.482 19.9462 134.482 19.3641C134.482 19.0916 134.438 18.8562 134.352 18.658C134.265 18.4475 134.141 18.2678 133.98 18.1192C133.819 17.9706 133.621 17.8405 133.385 17.729C133.162 17.6052 132.909 17.4875 132.624 17.376C132.066 17.1407 131.565 16.9053 131.119 16.67C130.685 16.4346 130.313 16.1683 130.004 15.871C129.694 15.5614 129.459 15.2145 129.298 14.8305C129.137 14.4342 129.056 13.9635 129.056 13.4185C129.056 12.9602 129.155 12.5328 129.354 12.1364C129.552 11.7277 129.824 11.3747 130.171 11.0774C130.518 10.7677 130.933 10.5262 131.416 10.3528C131.899 10.167 132.432 10.0741 133.014 10.0741ZM149.324 22.8199V16.7629C149.324 16.2426 149.243 15.8339 149.082 15.5366C148.921 15.2269 148.643 15.0721 148.246 15.0721C148.011 15.0721 147.769 15.1402 147.522 15.2765C147.286 15.4003 147.07 15.5861 146.871 15.8339C146.673 16.0816 146.512 16.3789 146.388 16.7257C146.264 17.0725 146.203 17.4565 146.203 17.8777V22.8199H144.103V16.7629C144.103 16.2426 144.022 15.8339 143.861 15.5366C143.7 15.2269 143.422 15.0721 143.025 15.0721C142.778 15.0721 142.53 15.1464 142.282 15.295C142.047 15.4313 141.83 15.6357 141.632 15.9082C141.446 16.1807 141.291 16.5151 141.167 16.9115C141.056 17.2955 141 17.729 141 18.2121V22.8199H138.882V18.1378C138.882 17.3946 138.832 16.7753 138.733 16.2798C138.634 15.7719 138.529 15.3632 138.418 15.0535C138.281 14.6943 138.133 14.4032 137.972 14.1802L139.644 13.5114C139.768 13.6476 139.892 13.8148 140.015 14.013C140.114 14.1864 140.214 14.4032 140.313 14.6633C140.412 14.9111 140.492 15.196 140.554 15.518C140.864 14.7748 141.297 14.2422 141.855 13.9201C142.425 13.5857 143.025 13.4185 143.657 13.4185C144.289 13.4185 144.778 13.5795 145.125 13.9015C145.484 14.2236 145.75 14.6386 145.924 15.1464C146.258 14.5271 146.686 14.0873 147.206 13.8272C147.738 13.5547 148.296 13.4185 148.878 13.4185C149.361 13.4185 149.764 13.499 150.086 13.66C150.42 13.8086 150.68 14.0254 150.866 14.3103C151.064 14.5828 151.207 14.9173 151.293 15.3136C151.38 15.6976 151.424 16.1311 151.424 16.6142V22.8199H149.324ZM161.208 18.3422C161.208 19.0854 161.251 19.7109 161.338 20.2187C161.437 20.7142 161.542 21.1168 161.654 21.4264C161.79 21.798 161.938 22.0891 162.099 22.2997L160.446 22.9686C160.285 22.8076 160.136 22.6156 160 22.3926C159.888 22.1944 159.783 21.9591 159.684 21.6866C159.585 21.4017 159.523 21.0672 159.498 20.6832C159.288 21.4264 158.947 21.99 158.476 22.374C158.018 22.7456 157.393 22.9314 156.6 22.9314C156.018 22.9314 155.51 22.8261 155.076 22.6156C154.655 22.3926 154.302 22.0829 154.017 21.6866C153.732 21.2778 153.522 20.7885 153.385 20.2187C153.249 19.649 153.181 19.0172 153.181 18.3236C153.181 17.6175 153.286 16.9672 153.497 16.3727C153.72 15.7657 154.023 15.2455 154.407 14.812C154.804 14.3784 155.274 14.0378 155.819 13.7901C156.364 13.5423 156.965 13.4185 157.622 13.4185C157.993 13.4185 158.377 13.4494 158.774 13.5114C159.182 13.5609 159.56 13.6167 159.907 13.6786C160.254 13.7405 160.545 13.8025 160.78 13.8644C161.028 13.9139 161.17 13.9449 161.208 13.9573V18.3422ZM156.953 21.445C157.262 21.445 157.547 21.3397 157.807 21.1292C158.068 20.9186 158.291 20.6461 158.476 20.3116C158.675 19.9648 158.823 19.5746 158.922 19.1411C159.034 18.6952 159.09 18.2431 159.09 17.7848V15.1092C158.966 15.0721 158.78 15.0287 158.532 14.9792C158.284 14.9296 158.061 14.9049 157.863 14.9049C157.393 14.9049 157.002 14.9854 156.693 15.1464C156.395 15.3074 156.154 15.5304 155.968 15.8153C155.782 16.1002 155.652 16.4408 155.578 16.8372C155.504 17.2336 155.466 17.6671 155.466 18.1378C155.466 18.5713 155.479 18.9863 155.504 19.3826C155.528 19.779 155.59 20.132 155.689 20.4417C155.801 20.7514 155.956 20.9991 156.154 21.1849C156.352 21.3583 156.618 21.445 156.953 21.445ZM167.48 15.4994C167.257 15.4994 167.034 15.5552 166.811 15.6666C166.588 15.7781 166.39 15.933 166.217 16.1311C166.043 16.3169 165.901 16.5461 165.789 16.8186C165.678 17.0911 165.622 17.3946 165.622 17.729V22.8199H163.504V18.1378C163.504 17.3946 163.455 16.7753 163.356 16.2798C163.256 15.7719 163.151 15.3632 163.04 15.0535C162.903 14.6943 162.755 14.4032 162.594 14.1802L164.266 13.5114C164.377 13.6476 164.495 13.8148 164.619 14.013C164.718 14.1864 164.817 14.3908 164.916 14.6262C165.015 14.8615 165.096 15.1402 165.158 15.4623C165.406 14.7438 165.765 14.2298 166.235 13.9201C166.706 13.5981 167.239 13.437 167.833 13.437C168.118 13.437 168.384 13.4742 168.632 13.5485C168.88 13.6105 168.998 13.6414 168.985 13.6414L168.391 15.7038C168.403 15.7038 168.329 15.6728 168.168 15.6109C168.019 15.5366 167.79 15.4994 167.48 15.4994ZM169.355 13.5671H171.027L171.399 11.3932L173.145 11.0031V13.5671H175.431L175.171 15.0721H173.145V20.5718C173.145 20.8938 173.232 21.1044 173.406 21.2035C173.579 21.2902 173.771 21.3335 173.982 21.3335C174.155 21.3335 174.328 21.3212 174.502 21.2964C174.675 21.2716 174.83 21.2406 174.966 21.2035C175.127 21.1663 175.282 21.123 175.431 21.0734L175.784 22.4669L175.617 22.5227C175.505 22.5722 175.338 22.628 175.115 22.6899C174.904 22.7394 174.65 22.7828 174.353 22.8199C174.068 22.8695 173.752 22.8943 173.406 22.8943C173.059 22.8943 172.737 22.8571 172.439 22.7828C172.154 22.7085 171.907 22.5908 171.696 22.4298C171.486 22.2564 171.318 22.0396 171.195 21.7795C171.083 21.5193 171.027 21.1973 171.027 20.8133V15.0721H169.355V13.5671Z" fill="#DFEDF1"/>
<path d="M136.655 37.4736C136.47 36.9658 136.321 36.4703 136.21 35.9872C136.148 36.2226 136.086 36.4579 136.024 36.6932C135.974 36.9286 135.906 37.1887 135.819 37.4736L133.404 45.11H131.769L128.276 32.5313H130.487L132.122 38.8299C132.407 39.92 132.611 40.7994 132.735 41.4683C132.822 41.1215 132.921 40.7375 133.032 40.3163C133.156 39.8952 133.305 39.4121 133.478 38.8671L135.448 32.5313H137.101L139.071 38.8671C139.244 39.4245 139.393 39.9324 139.517 40.3907C139.641 40.849 139.74 41.2515 139.814 41.5984C139.864 41.2515 139.932 40.849 140.018 40.3907C140.118 39.9324 140.241 39.4245 140.39 38.8671L142.025 32.5313H144.273L140.78 45.11H139.145L136.655 37.4736ZM152.353 40.6322C152.353 41.3754 152.396 42.0009 152.483 42.5088C152.582 43.0043 152.688 43.4068 152.799 43.7165C152.935 44.0881 153.084 44.3792 153.245 44.5897L151.591 45.2586C151.43 45.0976 151.282 44.9056 151.145 44.6826C151.034 44.4845 150.929 44.2491 150.83 43.9766C150.73 43.6917 150.669 43.3573 150.644 42.9733C150.433 43.7165 150.093 44.2801 149.622 44.6641C149.164 45.0357 148.538 45.2215 147.745 45.2215C147.163 45.2215 146.655 45.1162 146.222 44.9056C145.801 44.6826 145.448 44.373 145.163 43.9766C144.878 43.5678 144.667 43.0786 144.531 42.5088C144.395 41.939 144.327 41.3073 144.327 40.6136C144.327 39.9076 144.432 39.2573 144.642 38.6627C144.865 38.0558 145.169 37.5355 145.553 37.102C145.949 36.6685 146.42 36.3278 146.965 36.0801C147.51 35.8324 148.111 35.7085 148.767 35.7085C149.139 35.7085 149.523 35.7395 149.919 35.8014C150.328 35.851 150.706 35.9067 151.053 35.9686C151.399 36.0306 151.69 36.0925 151.926 36.1544C152.173 36.204 152.316 36.2349 152.353 36.2473V40.6322ZM148.098 43.7351C148.408 43.7351 148.693 43.6298 148.953 43.4192C149.213 43.2086 149.436 42.9361 149.622 42.6017C149.82 42.2549 149.969 41.8647 150.068 41.4311C150.179 40.9852 150.235 40.5331 150.235 40.0748V37.3993C150.111 37.3621 149.925 37.3188 149.678 37.2692C149.43 37.2197 149.207 37.1949 149.009 37.1949C148.538 37.1949 148.148 37.2754 147.838 37.4364C147.541 37.5975 147.299 37.8204 147.114 38.1053C146.928 38.3902 146.798 38.7309 146.723 39.1272C146.649 39.5236 146.612 39.9571 146.612 40.4278C146.612 40.8614 146.624 41.2763 146.649 41.6727C146.674 42.0691 146.736 42.4221 146.835 42.7317C146.946 43.0414 147.101 43.2891 147.299 43.4749C147.498 43.6484 147.764 43.7351 148.098 43.7351ZM156.815 45.1843C156.109 45.1843 155.588 44.9923 155.254 44.6083C154.92 44.212 154.752 43.7103 154.752 43.1033V32.0111L156.871 31.6209V42.899C156.871 43.1839 156.926 43.382 157.038 43.4935C157.149 43.605 157.31 43.6607 157.521 43.6607C157.645 43.6607 157.762 43.6546 157.874 43.6422C157.998 43.6298 158.109 43.6112 158.208 43.5864C158.32 43.5617 158.419 43.5369 158.506 43.5121L158.766 44.8499C158.605 44.9118 158.425 44.9675 158.227 45.0171C158.053 45.0666 157.849 45.1038 157.614 45.1286C157.378 45.1657 157.112 45.1843 156.815 45.1843ZM162.222 45.1843C161.516 45.1843 160.996 44.9923 160.661 44.6083C160.327 44.212 160.159 43.7103 160.159 43.1033V32.0111L162.278 31.6209V42.899C162.278 43.1839 162.333 43.382 162.445 43.4935C162.556 43.605 162.717 43.6607 162.928 43.6607C163.052 43.6607 163.169 43.6546 163.281 43.6422C163.405 43.6298 163.516 43.6112 163.615 43.5864C163.727 43.5617 163.826 43.5369 163.913 43.5121L164.173 44.8499C164.012 44.9118 163.832 44.9675 163.634 45.0171C163.461 45.0666 163.256 45.1038 163.021 45.1286C162.785 45.1657 162.519 45.1843 162.222 45.1843ZM164.83 40.7065C164.83 39.8766 164.941 39.1458 165.164 38.5141C165.4 37.8824 165.716 37.3559 166.112 36.9348C166.521 36.5013 166.998 36.1792 167.543 35.9686C168.088 35.7457 168.676 35.6342 169.308 35.6342C169.865 35.6342 170.336 35.7023 170.72 35.8386C171.116 35.9748 171.438 36.1606 171.686 36.396C171.934 36.6313 172.113 36.91 172.225 37.2321C172.349 37.5541 172.411 37.9009 172.411 38.2725C172.411 38.7185 172.287 39.1458 172.039 39.5546C171.791 39.9509 171.432 40.304 170.961 40.6136C170.503 40.9109 169.946 41.1524 169.289 41.3382C168.633 41.5117 167.896 41.6046 167.078 41.6169C167.115 41.9018 167.171 42.1743 167.245 42.4345C167.332 42.6822 167.45 42.9052 167.598 43.1033C167.759 43.2891 167.964 43.4378 168.211 43.5493C168.459 43.6607 168.769 43.7165 169.14 43.7165C169.413 43.7165 169.704 43.6855 170.014 43.6236C170.323 43.5617 170.608 43.4873 170.868 43.4006C171.178 43.3015 171.482 43.1901 171.779 43.0662L172.336 44.3854C172.014 44.5464 171.667 44.6888 171.296 44.8127C170.974 44.9242 170.602 45.0233 170.181 45.11C169.76 45.1967 169.314 45.24 168.843 45.24C168.125 45.24 167.512 45.1348 167.004 44.9242C166.496 44.7012 166.081 44.3916 165.759 43.9952C165.437 43.5988 165.201 43.1219 165.053 42.5645C164.904 42.0071 164.83 41.3878 164.83 40.7065ZM169.14 37.0834C168.732 37.0834 168.391 37.1825 168.119 37.3807C167.858 37.5665 167.648 37.8142 167.487 38.1239C167.326 38.4212 167.208 38.7618 167.134 39.1458C167.072 39.5174 167.035 39.8952 167.022 40.2792C167.617 40.2544 168.119 40.1801 168.527 40.0562C168.948 39.92 169.289 39.7589 169.549 39.5731C169.809 39.375 169.995 39.1644 170.107 38.9414C170.23 38.7185 170.292 38.4955 170.292 38.2725C170.292 37.9133 170.187 37.6284 169.977 37.4179C169.766 37.1949 169.487 37.0834 169.14 37.0834ZM172.966 35.8571H174.638L175.01 33.6833L176.756 33.2931V35.8571H179.042L178.781 37.3621H176.756V42.8618C176.756 43.1839 176.843 43.3944 177.016 43.4935C177.19 43.5802 177.382 43.6236 177.592 43.6236C177.766 43.6236 177.939 43.6112 178.113 43.5864C178.286 43.5617 178.441 43.5307 178.577 43.4935C178.738 43.4564 178.893 43.413 179.042 43.3635L179.395 44.757L179.227 44.8127C179.116 44.8623 178.949 44.918 178.726 44.9799C178.515 45.0295 178.261 45.0728 177.964 45.11C177.679 45.1595 177.363 45.1843 177.016 45.1843C176.669 45.1843 176.347 45.1471 176.05 45.0728C175.765 44.9985 175.518 44.8808 175.307 44.7198C175.096 44.5464 174.929 44.3296 174.805 44.0695C174.694 43.8094 174.638 43.4873 174.638 43.1033V37.3621H172.966V35.8571Z" fill="#DFEDF1"/>
<path d="M103.65 10.66C103.543 9.36662 103.423 8.24662 103.29 7.29995C103.15 6.29995 103.05 5.56995 102.98 4.95995L102.78 4.14995H91L91.2 5.05995C91.27 5.66995 91.39 6.51995 91.56 7.59995C91.73 8.67995 91.86 9.92995 91.97 11.32C92.08 12.71 92.12 14.18 92.12 15.74C92.12 19.61 92.05 23.42 91.91 27.19C91.8228 30.5718 91.4514 33.9403 90.8 37.2599C90.3464 39.8267 89.3584 42.2696 87.9 44.43C87.2787 45.3159 86.4451 46.0318 85.4755 46.5122C84.5059 46.9927 83.4313 47.2222 82.35 47.18C81.2847 47.2671 80.2166 47.0502 79.2696 46.5546C78.3226 46.059 77.5356 45.3049 77 44.38C75.8417 42.2086 75.2793 39.7692 75.37 37.31V29.37C75.37 27.68 75.37 25.88 75.37 23.98C75.37 22.08 75.43 20.19 75.43 18.29C75.43 13.95 75.4633 9.23662 75.53 4.14995H64.12V27.44C64.12 34.5 63.2733 39.5533 61.58 42.5999C59.8867 45.6466 57.48 47.1733 54.36 47.18C53.3166 47.2666 52.2705 47.0481 51.349 46.551C50.4276 46.0538 49.6705 45.2996 49.17 44.38C48.17 42.86 48.64 39.9799 48.86 37.9599C49.38 32.9599 50.68 24.63 50.16 21.36C49.86 16.6 48.96 11.42 46.51 8.21995C43.28 3.99995 36.29 1.71995 36.29 1.71995C34.6507 1.20593 32.9807 0.795122 31.29 0.489952C31.29 0.489952 28.9 0.109952 26.77 -4.77387e-05C24.9261 -0.037865 23.0832 0.112919 21.27 0.449952C18.4942 0.986629 15.8033 1.8948 13.27 3.14995C10.9804 4.31995 8.83299 5.74933 6.87 7.40995C5.37759 8.68869 4.15102 10.2482 3.26 12C2.38358 13.6792 1.92722 15.5458 1.93 17.44C1.7798 21.0092 2.99973 24.5008 5.34 27.2C7.61333 29.7333 11.36 31.9699 16.58 33.91C18.7334 34.6264 20.675 35.8669 22.23 37.52C23.4296 38.8438 24.099 40.5635 24.11 42.3499C24.1339 43.0695 23.99 43.7847 23.6897 44.439C23.3895 45.0934 22.9411 45.6688 22.38 46.1199C21.2333 47.0733 19.47 47.5466 17.09 47.54C15.6355 47.5129 14.1945 47.2564 12.82 46.7799C11.3315 46.2974 9.86942 45.7366 8.44 45.0999C7.28699 44.5966 6.16796 44.0187 5.09 43.3699L3.76 42.66L0 51.2099L1.53 51.9199C2.85947 52.596 4.23645 53.1742 5.65 53.65C7.56849 54.3144 9.52131 54.8752 11.5 55.33C13.6674 55.8332 15.885 56.0882 18.11 56.09C20.6599 56.1263 23.195 55.6959 25.59 54.82C27.6552 54.0531 29.5531 52.8953 31.18 51.41C32.6283 50.0733 33.7865 48.4534 34.583 46.6506C35.3794 44.8479 35.7971 42.9007 35.81 40.93C35.8524 39.007 35.5441 37.0924 34.9 35.2799C34.2955 33.7047 33.3769 32.269 32.2 31.06C30.9312 29.7797 29.4745 28.7006 27.88 27.86C26.0352 26.877 24.1316 26.0087 22.18 25.26C16.5533 23.0866 13.7367 20.0866 13.73 16.26C13.8771 14.7374 14.5654 13.3181 15.67 12.26C16.9039 10.9979 18.4233 10.0512 20.1 9.49995C21.775 8.95275 23.5118 8.61682 25.27 8.49995C26.853 8.46562 28.436 8.57272 30 8.81995C31.6498 9.09058 33.2727 9.50551 34.85 10.06C36.3578 10.55 37.7283 11.3895 38.85 12.51C39.9441 13.7097 40.7511 15.1424 41.21 16.7C41.9647 18.9383 42.494 21.2464 42.79 23.59C42.9551 26.2958 42.8277 29.0115 42.41 31.69C41.9892 34.7689 41.3204 37.8088 40.41 40.7799C40.05 41.9599 39.66 42.9399 39.41 43.6399C38.9435 44.8057 38.7197 46.0543 38.7524 47.3095C38.785 48.5647 39.0735 49.8001 39.6 50.9399C41.8667 54 45.6333 55.5266 50.9 55.52C55.0333 55.52 58.17 54.8533 60.31 53.52C62.5659 52.0246 64.3105 49.8751 65.31 47.36C67.77 52.8066 72.29 55.5266 78.87 55.52C82.9148 55.6435 86.9389 54.8967 90.67 53.33C93.896 51.8487 96.5829 49.4029 98.36 46.33C100.528 42.4073 101.942 38.1133 102.53 33.6699C103.451 27.3361 103.876 20.94 103.8 14.54C103.8 13.23 103.75 12 103.65 10.66Z" fill="#DFEDF1"/>
<path d="M116.89 0V56.09" stroke="#DFEDF1" stroke-miterlimit="10"/>
</g>
<defs>
<clipPath id="clip0_115_98">
<rect width="179.47" height="56.09" fill="white"/>
</clipPath>
</defs>
</svg>
